<svg xmlns="http://www.w3.org/2000/svg" width="540" height="820" viewBox="0 0 540 820" fill="none"><mask id="mask0_164_9145" style="mask-type:alpha" maskUnits="userSpaceOnUse" x="0" y="0" width="540" height="820"><rect width="540" height="820" fill="#D7D7D7"></rect></mask><g mask="url(#mask0_164_9145)"><mask id="mask1_164_9145" style="mask-type:alpha" maskUnits="userSpaceOnUse" x="-5" y="-18" width="389" height="676"><rect x="-5" y="-18" width="388.416" height="675.827" fill="white"></rect></mask><g mask="url(#mask1_164_9145)"><path d="M133.889 63.3413C147.198 35.0753 175.633 34.8656 181.117 35.0753C186.6 35.2849 191.992 36.579 196.982 38.8831C201.972 41.1871 206.462 44.4557 210.193 48.5007C213.925 52.5458 216.823 57.2874 218.723 62.4528C224.933 55.8093 235.358 52.8574 244.459 53.4306C253.56 54.0038 262.199 57.9162 269.56 63.3413C275.719 67.8448 280.949 73.5034 284.958 80.0016C287.476 84.1254 289.364 88.6016 290.561 93.2813C293.599 105.325 291.349 118.953 283.379 128.516C275.409 138.079 261.68 142.81 249.868 138.934C258.216 142.134 263.558 152.646 263.515 161.596C284.958 168.317 305.012 179.254 318.83 197.046C332.649 214.838 339.572 238.483 334.953 260.508C330.334 282.532 313.256 301.992 291.41 307.133C302.1 316.44 307.281 332.401 305.197 346.399C304.071 353.413 301.229 360.033 296.925 365.667C292.621 371.302 286.988 375.776 280.529 378.69C274.013 381.466 266.906 382.578 259.844 381.928C252.782 381.277 245.984 378.883 240.059 374.96C245.645 386.374 237.736 402.705 226.423 408.317C215.109 413.929 200.727 411.022 190.837 403.06C180.948 395.097 175.167 382.881 172.807 370.386C169.48 381.379 158.677 390.503 147.198 390.618C135.72 390.733 124.606 382.8 120.977 371.88C117.183 381.409 91.9786 394.31 71.0493 377.105" stroke="#616670" stroke-miterlimit="10"></path><path d="M58.7545 517.793L52.0886 463.813C51.0177 455.335 52.1572 446.724 55.3963 438.817C59.2198 429.513 63.7008 416.211 62.9421 406.512C61.6373 390.02 90.253 312.785 183.899 278.951C183.899 278.951 219.635 263.614 244.832 261.184" stroke="#616670" stroke-linecap="round" stroke-linejoin="round"></path><path d="M62.3555 546.96L61.1518 537.201" stroke="#616670" stroke-linecap="round" stroke-linejoin="round"></path><path d="M74.8857 642.088L64.4246 561.251" stroke="#616670" stroke-linecap="round" stroke-linejoin="round"></path><path d="M75.7675 278.941L87.1672 283.345C90.8998 284.77 113.36 283.378 117.355 283.345C181.817 274.749 201.525 261.61 209.326 251.756" stroke="#616670" stroke-linecap="round" stroke-linejoin="round"></path><path d="M228.739 238.385L210.774 259.969L244.832 256.618" stroke="#616670" stroke-linecap="round" stroke-linejoin="round"></path><path d="M24.3434 455.977V450.399C24.3838 449.83 24.283 449.259 24.0501 448.739C23.6978 448.283 23.183 447.982 22.6137 447.898C22.3338 447.857 22.0485 447.871 21.7742 447.941C21.4999 448.01 21.242 448.134 21.0155 448.303C20.115 449.028 19.4815 450.033 19.215 451.158C17.9239 455.301 18.1791 459.773 19.9333 463.742C20.2754 464.66 20.8505 465.473 21.6022 466.101C23.3116 467.356 25.8708 466.668 27.3273 465.089C28.6617 463.435 29.5249 461.452 29.8257 459.348C31.3019 452.497 31.6979 445.457 30.9991 438.483C30.7463 436.013 30.0787 433.168 27.8331 432.115C25.5875 431.062 22.8565 432.439 20.9346 434.14C16.1907 438.19 13.1358 443.98 11.2645 449.953C8.30081 459.389 8.10867 469.938 12.1952 478.948C13.8541 482.603 16.5346 486.197 20.4289 487.169C24.5963 488.181 29.0368 485.832 31.6465 482.411C34.2562 478.989 35.379 474.676 36.3399 470.485C39.0204 458.68 40.7906 446.552 39.9005 434.474" stroke="#616670" stroke-linecap="round" stroke-linejoin="round"></path><path d="M164.375 360.934C156.903 360.934 149.599 358.717 143.386 354.562C137.173 350.407 132.331 344.501 129.471 337.592C126.612 330.683 125.864 323.08 127.321 315.745C128.779 308.41 132.377 301.672 137.661 296.384C142.945 291.096 149.676 287.495 157.005 286.036C164.333 284.577 171.93 285.326 178.833 288.188C185.736 291.049 191.637 295.896 195.788 302.114C199.94 308.333 202.155 315.643 202.155 323.122C202.155 333.15 198.175 342.768 191.09 349.859C184.005 356.951 174.395 360.934 164.375 360.934Z" fill="white" stroke="#35C4BA" stroke-linecap="round" stroke-linejoin="round"></path><path d="M87.1678 283.345C87.1678 283.345 107.125 221.499 140.312 191.674" stroke="#616670" stroke-linecap="round" stroke-linejoin="round"></path><path d="M172.994 357.31C165.52 357.31 158.215 355.092 152.001 350.935C145.787 346.779 140.945 340.872 138.087 333.961C135.228 327.05 134.482 319.445 135.942 312.109C137.402 304.774 141.003 298.036 146.29 292.749C151.577 287.462 158.311 283.863 165.642 282.408C172.972 280.952 180.569 281.705 187.472 284.572C194.375 287.439 200.273 292.29 204.421 298.512C208.569 304.734 210.779 312.048 210.773 319.528C210.765 329.551 206.781 339.161 199.697 346.246C192.613 353.33 183.008 357.31 172.994 357.31Z" fill="white" stroke="#35C4BA" stroke-linecap="round" stroke-linejoin="round"></path><path d="M148.445 335.26C151.903 340.65 157.036 344.752 163.054 346.933C169.071 349.113 175.638 349.253 181.743 347.328C187.847 345.404 193.149 341.524 196.832 336.285C200.515 331.047 202.374 324.741 202.122 318.341C201.87 311.94 199.522 305.801 195.439 300.868C191.356 295.936 185.765 292.485 179.528 291.047C173.291 289.609 166.756 290.265 160.928 292.913C155.101 295.56 150.305 300.053 147.281 305.699" fill="white"></path><path d="M148.445 335.26C151.903 340.65 157.036 344.752 163.054 346.933C169.071 349.113 175.638 349.253 181.743 347.328C187.847 345.404 193.149 341.524 196.832 336.285C200.515 331.047 202.374 324.741 202.122 318.341C201.87 311.94 199.522 305.801 195.439 300.868C191.356 295.936 185.765 292.485 179.528 291.047C173.291 289.609 166.756 290.265 160.928 292.913C155.101 295.56 150.305 300.053 147.281 305.699" stroke="#35C4BA" stroke-linecap="round" stroke-linejoin="round"></path><path d="M143.812 319.528C143.806 321.973 144.112 324.409 144.723 326.776L143.812 319.528Z" fill="white"></path><path d="M143.812 319.528C143.806 321.973 144.112 324.409 144.723 326.776" stroke="#35C4BA" stroke-linecap="round" stroke-linejoin="round"></path><path d="M167.552 174.463C167.552 174.463 186.194 163.175 200.851 162.051" stroke="#616670" stroke-linecap="round" stroke-linejoin="round"></path><path d="M64.2364 215.849C60.1452 215.849 56.1459 214.635 52.7442 212.36C49.3425 210.085 46.6913 206.852 45.1256 203.069C43.56 199.286 43.1504 195.123 43.9485 191.107C44.7467 187.091 46.7167 183.402 49.6096 180.507C52.5025 177.611 56.1883 175.64 60.2009 174.841C64.2134 174.042 68.3727 174.452 72.1524 176.019C75.9322 177.586 79.1627 180.239 81.4357 183.644C83.7086 187.049 84.9219 191.052 84.9219 195.146C84.9219 200.637 82.7424 205.903 78.8632 209.786C74.9839 213.668 69.7225 215.849 64.2364 215.849Z" fill="white" stroke="#35C4BA" stroke-linecap="round" stroke-linejoin="round"></path><path d="M69.0415 213.919C64.9512 213.915 60.9538 212.697 57.5548 210.42C54.1558 208.143 51.5075 204.908 49.945 201.125C48.3825 197.341 47.9758 193.179 48.7762 189.164C49.5766 185.15 51.5483 181.463 54.442 178.569C57.3357 175.676 61.0216 173.706 65.0336 172.909C69.0456 172.112 73.2037 172.523 76.9823 174.09C80.7609 175.658 83.9903 178.312 86.2623 181.716C88.5344 185.12 89.7471 189.122 89.7471 193.216C89.7457 195.936 89.2091 198.629 88.1678 201.142C87.1265 203.654 85.6011 205.937 83.6784 207.859C81.7557 209.782 79.4735 211.306 76.9621 212.346C74.4507 213.386 71.7592 213.92 69.0415 213.919Z" fill="white" stroke="#35C4BA" stroke-linecap="round" stroke-linejoin="round"></path><path d="M55.5169 201.787C57.4114 204.739 60.2232 206.984 63.5188 208.178C66.8144 209.372 70.4109 209.447 73.7537 208.393C77.0965 207.339 80 205.213 82.0167 202.345C84.0334 199.476 85.0513 196.022 84.9134 192.517C84.7755 189.012 83.4896 185.65 81.2537 182.949C79.0179 180.247 75.9563 178.357 72.541 177.569C69.1258 176.781 65.5464 177.14 62.3548 178.589C59.1632 180.038 56.5365 182.498 54.8796 185.589" fill="white"></path><path d="M55.5979 201.841C57.4925 204.792 60.3043 207.038 63.5999 208.232C66.8955 209.425 70.492 209.501 73.8348 208.447C77.1775 207.393 80.081 205.267 82.0977 202.398C84.1144 199.529 85.1324 196.076 84.9945 192.571C84.8566 189.066 83.5706 185.704 81.3348 183.002C79.0989 180.301 76.0374 178.411 72.6221 177.623C69.2068 176.835 65.6275 177.193 62.4359 178.643C59.2442 180.092 56.6175 182.552 54.9607 185.643" stroke="#35C4BA" stroke-linecap="round" stroke-linejoin="round"></path><path d="M52.9985 193.162C52.9877 194.528 53.1543 195.889 53.4941 197.212L52.9985 193.162Z" fill="white"></path><path d="M52.9985 193.162C52.9877 194.528 53.1543 195.889 53.4941 197.212" stroke="#35C4BA" stroke-linecap="round" stroke-linejoin="round"></path><path d="M247.795 287.86C244.444 287.791 241.188 286.732 238.436 284.818C235.683 282.904 233.556 280.219 232.322 277.101C231.088 273.982 230.8 270.568 231.497 267.286C232.193 264.005 233.842 261.002 236.236 258.654C238.63 256.307 241.664 254.719 244.956 254.09C248.248 253.46 251.653 253.818 254.743 255.117C257.833 256.417 260.471 258.6 262.327 261.394C264.182 264.188 265.172 267.467 265.173 270.822C265.15 273.083 264.683 275.317 263.797 277.398C262.912 279.478 261.625 281.363 260.011 282.945C258.398 284.527 256.488 285.776 254.392 286.619C252.296 287.463 250.054 287.884 247.795 287.86Z" fill="white" stroke="#35C4BA" stroke-linecap="round" stroke-linejoin="round"></path><path d="M250.962 285.005C247.611 284.936 244.355 283.877 241.603 281.963C238.85 280.049 236.723 277.364 235.489 274.246C234.255 271.127 233.967 267.713 234.664 264.431C235.36 261.15 237.009 258.147 239.403 255.799C241.797 253.452 244.831 251.864 248.123 251.235C251.415 250.605 254.82 250.963 257.91 252.262C261 253.562 263.638 255.745 265.494 258.539C267.349 261.333 268.339 264.612 268.34 267.967C268.317 270.228 267.85 272.462 266.964 274.543C266.079 276.623 264.792 278.508 263.178 280.09C261.565 281.673 259.655 282.921 257.559 283.764C255.463 284.608 253.221 285.03 250.962 285.005Z" fill="white" stroke="#35C4BA" stroke-linecap="round" stroke-linejoin="round"></path><path d="M242.789 278.364C244.581 279.72 246.68 280.613 248.899 280.967C251.117 281.32 253.389 281.121 255.513 280.389C257.159 279.829 258.676 278.947 259.977 277.793C261.278 276.639 262.336 275.238 263.089 273.67C263.842 272.103 264.276 270.401 264.365 268.664C264.453 266.927 264.195 265.189 263.606 263.553C262.351 260.239 259.844 257.553 256.626 256.073C253.409 254.594 249.739 254.441 246.41 255.646C244.142 256.428 242.13 257.815 240.593 259.659C239.056 261.502 238.053 263.731 237.691 266.104" fill="white"></path><path d="M242.789 278.364C244.581 279.72 246.68 280.613 248.899 280.967C251.117 281.32 253.389 281.121 255.513 280.389C257.159 279.829 258.676 278.947 259.977 277.793C261.278 276.639 262.336 275.238 263.089 273.67C263.842 272.103 264.276 270.401 264.365 268.664C264.453 266.927 264.195 265.189 263.606 263.553C262.351 260.239 259.844 257.553 256.626 256.073C253.409 254.594 249.739 254.441 246.41 255.646C244.142 256.428 242.13 257.815 240.593 259.659C239.056 261.502 238.053 263.731 237.691 266.104" stroke="#35C4BA" stroke-linecap="round" stroke-linejoin="round"></path><path d="M238.358 272.432C238.733 273.469 239.243 274.453 239.875 275.357L238.358 272.432Z" fill="white"></path><path d="M238.358 272.432C238.733 273.469 239.243 274.453 239.875 275.357" stroke="#35C4BA" stroke-linecap="round" stroke-linejoin="round"></path><path d="M197.078 157.546L172.124 164.279L184.596 149.346" stroke="#616670" stroke-linecap="round" stroke-linejoin="round"></path><path d="M217.773 295.899C217.773 295.899 226.391 289.328 236.142 294.684C245.893 300.039 244.993 301.082 244.993 301.082C232.45 305.324 210.601 292.143 210.601 292.143" stroke="#616670" stroke-linecap="round" stroke-linejoin="round"></path><path d="M222.173 302.074C222.173 302.074 237.184 308.564 245.033 301.062" stroke="#616670" stroke-linecap="round" stroke-linejoin="round"></path><path d="M181.349 134.798C181.349 134.798 169.453 127.266 171.598 113.001C173.742 98.7368 175.381 99.324 175.381 99.324C184.788 110.916 181.389 136.995 180.337 143.687C180.17 144.709 179.689 145.653 178.962 146.39V146.39L155.414 168.257C155.414 168.257 69.1013 241.706 67.6043 242.455V217.621" stroke="#616670" stroke-linecap="round" stroke-linejoin="round"></path><path d="M186.881 126.669C186.881 126.669 187.994 105.408 175.33 99.2633" stroke="#616670" stroke-linecap="round" stroke-linejoin="round"></path><path d="M138.977 204.116C138.977 204.116 137.763 214.898 147.363 220.527C156.962 226.156 157.387 224.85 157.387 224.85C154.595 211.901 132.099 199.884 132.099 199.884" stroke="#616670" stroke-linecap="round" stroke-linejoin="round"></path><path d="M146.514 204.713C146.514 204.713 159.774 214.28 157.387 224.86" stroke="#616670" stroke-linecap="round" stroke-linejoin="round"></path><path d="M208.326 164.765C208.326 164.765 209.338 175.557 219.928 179.059C230.519 182.562 230.63 181.175 230.63 181.175C225.208 169.098 200.689 162.021 200.689 162.021" stroke="#616670" stroke-linecap="round" stroke-linejoin="round"></path><path d="M215.811 163.762C215.811 163.762 230.801 170.363 230.629 181.175" stroke="#616670" stroke-linecap="round" stroke-linejoin="round"></path><path d="M235.131 220.203C235.131 220.203 245.611 222.946 252.519 214.24C259.428 205.533 258.174 204.906 258.174 204.906C245.803 205.797 231.804 223.989 230.104 226.257C229.988 226.415 229.863 226.567 229.73 226.712L228.718 227.796L206.718 254.897" stroke="#616670" stroke-linecap="round" stroke-linejoin="round"></path><path d="M236.76 212.822C236.76 212.822 248.099 200.988 258.184 204.855" stroke="#616670" stroke-linecap="round" stroke-linejoin="round"></path><path d="M24.5449 561.913V597.61" stroke="#616670" stroke-linecap="round" stroke-linejoin="round"></path><path d="M24.5449 550.665V541.058" stroke="#616670" stroke-linecap="round" stroke-linejoin="round"></path><path d="M68.8453 180.786L61.7952 192.298L68.8663 196.852L75.9258 192.625L68.8453 180.786Z" stroke="#35C4BA" stroke-linecap="round" stroke-linejoin="round"></path><path d="M61.8027 194.984L68.8729 199.266L75.9337 195.096L68.8805 204.997L61.8027 194.984Z" stroke="#35C4BA" stroke-linecap="round" stroke-linejoin="round"></path><path d="M68.8807 204.997L68.8766 199.27" stroke="#35C4BA" stroke-linecap="round" stroke-linejoin="round"></path><path d="M68.8701 196.849L68.8449 180.786" stroke="#35C4BA" stroke-linecap="round" stroke-linejoin="round"></path><path d="M61.8008 192.295L68.863 189.337L75.9325 192.622" stroke="#35C4BA" stroke-linecap="round" stroke-linejoin="round"></path><path d="M157.688 86.8948C159.192 97.9501 152.611 109.069 143.187 115.047C133.763 121.025 122.066 122.433 110.986 121.389C109.378 129.478 104.205 135.661 96.4638 138.47C92.5629 139.827 88.383 140.179 84.3097 139.493C80.2364 138.808 76.4011 137.108 73.1576 134.55C74.388 136.3 75.1354 138.343 75.3245 140.474C75.5136 142.605 75.1378 144.748 74.2349 146.687C73.2769 148.585 71.8298 150.194 70.0428 151.348C68.2559 152.501 66.1936 153.157 64.0685 153.247C69.6493 154.116 74.7775 156.833 78.6306 160.963C82.3483 165.132 84.022 171.33 81.9528 176.503C79.8836 181.675 73.5956 185.094 68.3603 183.145C66.5924 190.221 60.2769 196.307 52.9988 196.151C45.7206 195.996 39.9016 193.644 38.4144 186.523C40.4901 198.566 32.2716 211.484 20.4674 214.713C32.7343 218.061 43.6371 224.655 52.8577 233.408C58.5326 238.804 63.4468 245.163 66.0733 252.531C68.6998 259.9 68.8145 268.361 65.328 275.347C61.8416 282.333 54.4005 287.508 46.5917 287.27C47.9673 289.955 48.7461 292.906 48.8747 295.92C49.0033 298.934 48.4786 301.94 47.3366 304.731C45.0402 310.026 40.7562 314.285 35.8252 317.272C31.6484 319.803 27.0121 321.484 22.1829 322.216C17.3537 322.949 12.427 322.72 7.68629 321.541C2.94557 320.363 -1.5156 318.258 -5.44057 315.349C-9.36552 312.44 -12.6768 308.784 -15.1838 304.591C-19.5255 311.429 -28.1582 315.748 -36.2101 316.767C-44.262 317.786 -52.457 315.813 -59.7818 312.305C-65.9048 309.401 -71.4044 305.333 -75.974 300.329C-78.8507 297.148 -81.2351 293.555 -83.0478 289.669C-87.677 279.659 -87.9408 267.384 -82.5381 257.702C-77.1353 248.02 -65.9053 241.597 -54.9415 243.008C-62.7652 241.609 -69.1578 233.322 -70.5857 225.499C-90.4361 223.211 -109.762 217.01 -124.759 203.782C-139.756 190.553 -149.682 171.063 -149.25 151.06C-148.818 131.057 -137.071 111.212 -118.81 103.074C-129.682 96.7324 -136.826 83.661 -137.296 71.0898C-137.46 64.7769 -136.059 58.5219 -133.218 52.883C-130.377 47.244 -126.184 42.3966 -121.014 38.7732C-115.771 35.2609 -109.739 33.1028 -103.457 32.4919C-97.175 31.8809 -90.8393 32.836 -85.0159 35.2719C-91.7697 26.2377 -87.5283 10.6564 -78.5546 3.86698C-69.581 -2.92244 -56.5286 -2.78646 -46.5775 2.51485C-36.6265 7.81616 -29.5706 17.5174 -25.4607 28.0346C-24.3522 17.88 -16.3997 8.10812 -6.3817 6.09064C3.63635 4.07316 14.6539 9.14424 19.615 18.0735C21.3718 9.12001 30.9218 1.70506 40.019 1.15168C49.1163 0.598311 58.221 6.76165 61.0769 15.4321C66.1986 11.6355 72.1033 9.03001 78.3605 7.80559C91.2813 5.14773 105.485 7.79141 116.241 15.3353C132.212 26.5334 139.736 48.4331 134.019 67.0774C144.954 64.9728 156.168 75.8617 157.688 86.8948Z" fill="white" stroke="#616670" stroke-miterlimit="10"></path><path d="M174.026 299.901L161.877 319.738L174.062 327.586L186.228 320.303L174.026 299.901Z" stroke="#35C4BA" stroke-linecap="round" stroke-linejoin="round"></path><path d="M161.888 322.51L174.071 329.889L186.239 322.703L174.084 339.765L161.888 322.51Z" stroke="#35C4BA" stroke-linecap="round" stroke-linejoin="round"></path><path d="M174.085 339.765L174.078 329.895" stroke="#35C4BA" stroke-linecap="round" stroke-linejoin="round"></path><path d="M174.07 327.582L174.026 299.901" stroke="#35C4BA" stroke-linecap="round" stroke-linejoin="round"></path><path d="M161.885 319.734L174.055 314.636L186.237 320.298" stroke="#35C4BA" stroke-linecap="round" stroke-linejoin="round"></path><path d="M251.211 258.591L245.839 267.363L251.227 270.833L256.606 267.612L251.211 258.591Z" stroke="#35C4BA" stroke-linecap="round" stroke-linejoin="round"></path><path d="M245.844 269.409L251.231 272.672L256.611 269.495L251.237 277.039L245.844 269.409Z" stroke="#35C4BA" stroke-linecap="round" stroke-linejoin="round"></path><path d="M251.237 277.039L251.233 272.675" stroke="#35C4BA" stroke-linecap="round" stroke-linejoin="round"></path><path d="M251.23 270.831L251.211 258.591" stroke="#35C4BA" stroke-linecap="round" stroke-linejoin="round"></path><path d="M245.843 267.361L251.224 265.106L256.611 267.61" stroke="#35C4BA" stroke-linecap="round" stroke-linejoin="round"></path></g><path d="M442.22 460.322C442.22 460.322 450.075 457.823 453.532 457.58C458.352 457.237 470.507 456.759 474.956 466.942C479.405 477.126 477.17 481.503 477.17 481.503" stroke="#35C4BA" stroke-linecap="round" stroke-linejoin="round"></path><path d="M204 758.737L212.735 754.789L224.647 754L231 773.737L215.912 784L211.147 780.053L212.735 776.105L204 758.737Z" fill="white"></path><path d="M245.449 784.345C234.064 787.061 228.239 802.479 226.767 809.592C229.796 814.136 236.431 808.542 238.885 807.572C238.885 807.572 256.053 792.929 245.449 784.345Z" fill="white"></path><path d="M219.358 681.541C223.942 675.078 227.135 667.73 228.727 659.967L216.587 659.546C216.587 659.546 215.873 673.971 212.023 681.427L219.358 681.541Z" fill="#616670" stroke="#616670" stroke-linecap="round" stroke-linejoin="round"></path><path d="M200.997 555.881V540.406C200.997 538.913 202.211 537.699 203.704 537.699H221.443C222.935 537.699 224.15 538.913 224.15 540.406V572.099C224.15 573.592 222.935 574.806 221.443 574.806H213.852" stroke="#616670" stroke-linecap="round" stroke-linejoin="round"></path><path d="M146.957 579.455L148.385 602.357C149.107 606.007 152.656 608.378 156.298 607.656C157.276 607.463 158.205 607.049 159.012 606.449L195.583 579.269C196.583 578.526 197.74 578.041 198.968 577.841L210.744 575.97C212.537 575.684 214.193 574.827 215.464 573.535L218.321 570.592" stroke="#35C4BA" stroke-linecap="round" stroke-linejoin="round"></path><path d="M199.155 557.359C201.89 554.988 205.083 553.217 208.539 552.146C209.575 551.853 210.674 552.346 211.146 553.317C211.638 554.339 211.281 555.574 210.317 556.174C208.253 557.438 204.897 559.959 203.176 563.772L217.459 558.345C218.28 558.038 219.194 558.452 219.501 559.266C219.508 559.295 219.523 559.323 219.53 559.352C219.644 559.73 219.615 560.145 219.444 560.502L218.951 561.523C218.823 561.787 218.794 562.087 218.873 562.373L219.287 563.844C219.573 564.879 219.301 565.993 218.573 566.779C216.673 568.814 214.316 570.371 211.696 571.307" stroke="#35C4BA" stroke-linecap="round" stroke-linejoin="round"></path><path d="M156.091 538.263L145.064 580.726C145.064 580.726 146.671 576.72 169.845 577.934" stroke="#616670" stroke-linecap="round" stroke-linejoin="round"></path><path d="M157.555 533.979C157.284 534.607 157.041 535.235 156.841 535.878" stroke="#7E88C7" stroke-linecap="round" stroke-linejoin="round"></path><path d="M194.419 508.255L172.995 518.11C167.011 520.867 162.069 525.473 158.905 531.25" stroke="#616670" stroke-linecap="round" stroke-linejoin="round"></path><path d="M146.957 579.455C146.957 579.455 146.678 579.691 145.064 580.726" stroke="#7E88C7" stroke-linecap="round" stroke-linejoin="round"></path><path d="M173.924 544.448L172.175 576.755" stroke="#616670" stroke-linecap="round" stroke-linejoin="round"></path><path d="M173.045 563.587L178.772 554.281" stroke="#616670" stroke-linecap="round" stroke-linejoin="round"></path><path d="M245.574 503.556C250.473 503.877 255.279 505.041 259.786 506.998L290.836 522.074C290.836 522.074 275.125 520.874 268.791 540.77C261.707 538.827 254.465 537.513 247.152 536.835C247.152 536.835 243.839 574.684 246.881 591.552" stroke="#616670" stroke-linecap="round" stroke-linejoin="round"></path><path d="M239.345 503.428L241.923 503.47" stroke="#7E88C7" stroke-linecap="round" stroke-linejoin="round"></path><path d="M224.935 503.299L236.732 503.413" stroke="#616670" stroke-linecap="round" stroke-linejoin="round"></path><path d="M290.821 522.074L303.018 528.844C306.31 531.165 307.096 535.714 304.775 539.006C304.182 539.849 303.418 540.556 302.533 541.077L279.623 557.367" stroke="#35C4BA" stroke-linecap="round" stroke-linejoin="round"></path><path d="M152.149 586.918L190.106 567.636C191.691 566.829 192.841 565.372 193.262 563.644L194.012 560.594C194.305 559.373 194.948 558.266 195.855 557.395L199.126 554.253" stroke="#35C4BA" stroke-linecap="round" stroke-linejoin="round"></path><path d="M289.622 526.687L265.513 550.918C264.07 552.203 263.099 553.939 262.756 555.845L260.121 570.585C259.764 572.585 260.121 574.642 261.135 576.405L261.335 576.748" stroke="#35C4BA" stroke-linecap="round" stroke-linejoin="round"></path><path d="M269.896 537.699L278.109 538.249" stroke="#35C4BA" stroke-linecap="round" stroke-linejoin="round"></path><path d="M175.909 593.888L174.652 621.846" stroke="#616670" stroke-linecap="round" stroke-linejoin="round"></path><path d="M242.045 536.835H247.137" stroke="#616670" stroke-linecap="round" stroke-linejoin="round"></path><path d="M279.802 554.124C279.781 559.13 278.574 564.058 276.281 568.507C275.931 569.143 275.746 569.857 275.746 570.578V577.72C275.746 578.784 274.889 579.648 273.818 579.648C273.732 579.648 273.646 579.648 273.56 579.633C272.689 579.512 272.004 578.819 271.896 577.948C271.475 574.792 271.382 571.606 271.611 568.429" stroke="#35C4BA" stroke-linecap="round" stroke-linejoin="round"></path><path d="M266.642 568.686L267.484 578.462C267.577 579.491 268.441 580.276 269.47 580.276C270.562 580.276 271.448 579.383 271.455 578.291L271.519 573.756" stroke="#35C4BA" stroke-linecap="round" stroke-linejoin="round"></path><path d="M262.277 570.207L263.306 577.734C263.606 578.826 264.655 579.533 265.777 579.405L267.005 579.262" stroke="#35C4BA" stroke-linecap="round" stroke-linejoin="round"></path><path d="M214.7 612.798L164.403 646.02C164.403 646.02 183.235 650.59 184.314 666.73C184.314 666.73 233.646 647.748 267.004 609.063" stroke="#616670" stroke-linecap="round" stroke-linejoin="round"></path><path d="M221.45 608.335L218.322 610.406" stroke="#616670" stroke-linecap="round" stroke-linejoin="round"></path><path d="M216.602 659.546H241.739C260.571 643.335 269.698 621.811 273.676 608.056C275.954 600.186 272.005 591.86 264.47 588.646C259.464 586.503 253.723 587.025 249.181 590.024L226.6 604.935" stroke="#616670" stroke-linecap="round" stroke-linejoin="round"></path><path d="M164.405 646.02L157.813 650.819" stroke="#35C4BA" stroke-linecap="round" stroke-linejoin="round"></path><path d="M184.314 666.708C184.314 666.708 182.729 668.215 179.708 661.631L182.643 659.967C183.657 662.074 184.229 664.373 184.314 666.708Z" stroke="#616670" stroke-linecap="round" stroke-linejoin="round"></path><path d="M200.997 621.846C200.997 621.846 191.477 624.703 174.652 621.846V639.25" stroke="#616670" stroke-linecap="round" stroke-linejoin="round"></path><path d="M165.54 665.78L167.475 668.601C168.175 669.622 167.918 671.015 166.896 671.722C166.854 671.75 166.804 671.779 166.761 671.807L161.483 674.8C158.327 676.499 155.499 678.742 153.121 681.427C149.136 685.883 144.444 689.661 139.238 692.61C139.238 692.61 125.326 687.954 120.777 668.537C120.777 668.537 135.824 664.159 141.009 659.103C144.651 655.532 147.922 652.161 149.543 650.462C150.157 649.812 151.164 649.719 151.892 650.248L155.056 652.554" stroke="#35C4BA" stroke-linecap="round" stroke-linejoin="round"></path><path d="M120.777 668.515C118.613 669.008 116.999 670.815 116.749 673.021C116.749 673.021 118.891 686.319 131.41 694.024C131.41 694.024 134.074 695.924 139.266 692.596" stroke="#35C4BA" stroke-linecap="round" stroke-linejoin="round"></path><path d="M146.957 673.029L168.003 664.188C168.931 663.795 169.367 662.731 168.974 661.802C168.945 661.731 168.91 661.667 168.874 661.602C167.196 658.689 163.454 653.083 158.483 650.983C157.655 650.626 156.698 650.819 156.077 651.476L148.685 659.174" stroke="#35C4BA" stroke-linecap="round" stroke-linejoin="round"></path><path d="M182.643 659.967L167.582 668.515" stroke="#35C4BA" stroke-linecap="round" stroke-linejoin="round"></path><path d="M135.019 666.859C135.019 666.859 140.889 669.429 145.066 679.906" stroke="#35C4BA" stroke-linecap="round" stroke-linejoin="round"></path><path d="M138.688 664.423C138.688 664.423 144.558 666.994 148.735 677.471" stroke="#35C4BA" stroke-linecap="round" stroke-linejoin="round"></path><path d="M208.546 688.476C208.546 688.476 216.523 673.636 217.358 649.912" stroke="#616670" stroke-linecap="round" stroke-linejoin="round"></path><path d="M228.726 754.319C228.726 754.319 229.769 755.298 225.37 756.64L224.57 754.026C224.213 754.076 226.505 754.026 228.726 754.319Z" stroke="#7E88C7" stroke-linecap="round" stroke-linejoin="round"></path><path d="M199.155 762.06C201.191 762.639 203.383 762.31 205.161 761.168L203.911 758.633C203.911 758.633 200.176 760.811 199.155 762.06Z" stroke="#7E88C7" stroke-linecap="round" stroke-linejoin="round"></path><path d="M224.571 754.034L230.349 772.815" stroke="#35C4BA" stroke-linecap="round" stroke-linejoin="round"></path><path d="M226.063 774.658L232.533 772.637C233.254 772.415 234.033 772.651 234.504 773.237L239.882 779.885C240.931 781.185 242.217 782.278 243.667 783.106L246.066 784.477C246.066 784.477 232.905 784.313 226.684 810.086C226.684 810.086 224.071 804.995 221.278 799.417C219.029 794.904 214.194 789.212 212.43 787.198C212.023 786.734 211.923 786.084 212.173 785.52L213.73 782.014" fill="white"></path><path d="M129 604.5L134.5 602L142 601.5L146 614L136.5 620.5L133.5 618L134.5 615.5L129 604.5Z" fill="white"></path><path d="M226.063 774.658L232.533 772.637C233.254 772.416 234.033 772.651 234.504 773.237L239.882 779.885C240.931 781.185 242.217 782.278 243.667 783.106L246.066 784.477C246.066 784.477 232.905 784.313 226.684 810.086C226.684 810.086 224.071 804.995 221.278 799.417C219.029 794.904 214.194 789.212 212.43 787.198C212.023 786.734 211.923 786.084 212.173 785.52L213.73 782.014M129 604.5L134.5 615.5L133.5 618L136.5 620.5L146 614L142 601.5L134.5 602L129 604.5Z" stroke="#35C4BA" stroke-linecap="round" stroke-linejoin="round"></path><path d="M203.882 758.633L212.587 776.35" stroke="#35C4BA" stroke-linecap="round" stroke-linejoin="round"></path><path d="M179.708 703.822C183.443 721.176 189.456 742.215 199.154 762.061C199.154 762.061 208.631 752.148 228.755 754.319L201.296 664.916" stroke="#616670" stroke-linecap="round" stroke-linejoin="round"></path><path d="M178.715 699.038C178.851 699.716 178.986 700.402 179.129 701.087" stroke="#616670" stroke-linecap="round" stroke-linejoin="round"></path><path d="M173.924 664.916C174.709 675.171 176.081 685.369 178.03 695.467" stroke="#616670" stroke-linecap="round" stroke-linejoin="round"></path><path d="M220.5 786.877L211.759 780.45C211.152 780 210.973 779.157 211.352 778.5C212.494 776.529 215.636 772.687 223.185 770.837C223.956 770.652 224.735 771.102 224.963 771.859C225.841 774.794 227.955 781.792 228.912 784.485" stroke="#35C4BA" stroke-linecap="round" stroke-linejoin="round"></path><path d="M222.528 791.319C222.528 791.319 227.006 784.02 232.391 783.206" stroke="#35C4BA" stroke-linecap="round" stroke-linejoin="round"></path><path d="M226.686 810.086L230.349 811.965C230.349 811.965 234.634 789.055 248.838 790.348C248.838 790.348 249.024 787.491 246.067 784.477" stroke="#35C4BA" stroke-linecap="round" stroke-linejoin="round"></path><path d="M248.836 790.348C248.836 790.348 250.1 804.395 230.347 811.965" stroke="#35C4BA" stroke-linecap="round" stroke-linejoin="round"></path><path d="M223.905 509.848C222.57 508.776 221.406 507.505 220.463 506.077" stroke="#35C4BA" stroke-linecap="round" stroke-linejoin="round"></path><path d="M193.612 510.805C192.655 512.369 192.983 514.39 194.376 515.575C196.99 517.717 202.488 520.331 213.708 519.781C232.54 518.867 225.391 510.912 225.391 510.912" stroke="#616670" stroke-linecap="round" stroke-linejoin="round"></path><path d="M196.956 482.796C195.363 479.154 192.514 477.219 189.214 479.04C185.915 480.861 188.172 486.588 190.107 490.916C190.821 493.001 193.085 494.108 195.17 493.394C195.427 493.308 195.67 493.194 195.899 493.058L195.499 503.428C195.492 505.499 195.085 507.548 194.299 509.469" stroke="#35C4BA" stroke-linecap="round" stroke-linejoin="round"></path><path d="M191.799 482.96C191.799 482.96 195.091 484.667 195.37 488.224C195.37 488.224 193.556 487.002 192.12 487.217" stroke="#35C4BA" stroke-linecap="round" stroke-linejoin="round"></path><path d="M227.87 471.227C227.87 471.227 231.441 500.614 222.414 505.242C213.195 509.969 205.725 504.356 201.704 502.106" stroke="#35C4BA" stroke-linecap="round" stroke-linejoin="round"></path><path d="M228.184 479.083C228.184 479.083 224.228 477.49 221.514 479.418C220.5 480.161 219.929 481.361 219.993 482.618L220.436 493.565C220.45 493.987 220.136 494.344 219.722 494.379L216.937 494.751" stroke="#35C4BA" stroke-linecap="round" stroke-linejoin="round"></path><path d="M222.579 486.617C222.579 486.617 225.036 483.674 227.292 486.617" stroke="#35C4BA" stroke-linecap="round" stroke-linejoin="round"></path><path d="M210.438 486.617C210.438 486.617 212.901 483.674 215.151 486.617" stroke="#35C4BA" stroke-linecap="round" stroke-linejoin="round"></path><path d="M207.11 481.025C207.11 481.025 212.309 478.304 216.965 481.025" stroke="#35C4BA" stroke-linecap="round" stroke-linejoin="round"></path><path d="M208.08 496.222C208.08 496.222 209.723 501.935 217.8 501.307" stroke="#35C4BA" stroke-linecap="round" stroke-linejoin="round"></path><path d="M190.52 477.711C190.52 477.711 187.142 469.235 188.856 466.285C190.57 463.336 192.427 463.264 192.427 463.264C192.427 463.264 199.204 451.231 212.009 451.36C224.813 451.488 215.579 455.544 215.579 455.544C215.579 455.544 225.656 453.288 229.362 453.773C233.069 454.259 229.077 457.637 229.077 457.637C229.077 457.637 239.353 459.029 239.032 462.736C238.71 466.442 234.233 470.549 234.233 470.549" stroke="#35C4BA" stroke-linecap="round" stroke-linejoin="round"></path><path d="M196.546 467.785C196.546 467.785 205.623 471.97 211.079 472.07C216.535 472.17 211.079 469.27 211.079 469.27C211.079 469.27 218.32 472.57 222.091 472.07C225.861 471.57 222.091 468.549 222.091 468.549C222.091 468.549 227.025 471.655 230.425 470.349" stroke="#35C4BA" stroke-linecap="round" stroke-linejoin="round"></path><path d="M197.847 468.656C197.847 468.656 200.197 478.933 197.083 482.939" stroke="#35C4BA" stroke-linecap="round" stroke-linejoin="round"></path><path d="M222.993 509.076C222.993 509.076 206.74 514.204 201.733 502.106C201.733 502.106 212.038 509.812 220.465 506.098L222.993 509.076Z" fill="#35C4BA" stroke="#35C4BA" stroke-linecap="round" stroke-linejoin="round"></path><path d="M289.62 526.687L274.316 537.699L278.108 538.249L289.62 526.687Z" fill="#35C4BA" stroke="#35C4BA" stroke-linecap="round" stroke-linejoin="round"></path><path d="M167.188 579.276L151.677 584.204L152.148 586.903L167.188 579.276Z" fill="#35C4BA" stroke="#35C4BA" stroke-linecap="round" stroke-linejoin="round"></path><path d="M263.662 612.798C263.662 612.798 246.287 641.864 216.965 656.189L217.358 649.905C217.358 649.905 243.102 634.629 263.662 612.798Z" fill="#616670" stroke="#616670" stroke-linecap="round" stroke-linejoin="round"></path><path d="M216.965 656.189L187.509 670.403C186.923 670.696 186.238 670.531 185.952 669.953C185.917 669.881 185.867 669.724 185.867 669.724L184.952 666.346C184.952 666.346 210.109 654.818 219.357 648.677L216.965 656.189Z" fill="#616670" stroke="#616670" stroke-linecap="round" stroke-linejoin="round"></path><path d="M120.249 659.546H141.009" stroke="#616670" stroke-linecap="round" stroke-linejoin="round"></path><path d="M114.529 659.546H116.75" stroke="#616670" stroke-linecap="round" stroke-linejoin="round"></path><path d="M119.778 681.427H96.2115C94.1976 681.427 92.5693 679.792 92.5693 677.785C92.5693 677.399 92.6336 677.014 92.755 676.642L96.4043 665.673C97.6183 662.017 101.039 659.546 104.888 659.546H111.423" stroke="#616670" stroke-linecap="round" stroke-linejoin="round"></path><path d="M335.055 681.427H415.124C417.131 681.427 418.759 679.799 418.759 677.792C418.759 677.399 418.695 677.014 418.574 676.642L414.932 665.673C413.71 662.017 410.29 659.546 406.433 659.546H216.965" stroke="#616670" stroke-linecap="round" stroke-linejoin="round"></path><path d="M274.317 726.104H220.035" stroke="#616670" stroke-linecap="round" stroke-linejoin="round"></path><path d="M279.373 726.104H276.76" stroke="#616670" stroke-linecap="round" stroke-linejoin="round"></path><path d="M218.136 719.769H381.131V726.104H284.508" stroke="#616670" stroke-linecap="round" stroke-linejoin="round"></path><path d="M185.364 726.104H123.727V719.769H183.571" stroke="#616670" stroke-linecap="round" stroke-linejoin="round"></path><path d="M326.121 681.427H330.549" stroke="#616670" stroke-linecap="round" stroke-linejoin="round"></path><path d="M212.037 681.427H321.272" stroke="#616670" stroke-linecap="round" stroke-linejoin="round"></path><path d="M387.037 681.427H381.131V770.787H387.037V681.427Z" stroke="#616670" stroke-linecap="round" stroke-linejoin="round"></path><path d="M123.727 698.859V701.094V770.787H117.821V681.427" stroke="#616670" stroke-linecap="round" stroke-linejoin="round"></path><path d="M123.727 692.589V694.56" stroke="#616670" stroke-linecap="round" stroke-linejoin="round"></path><path d="M162.732 644.277H106.815C105.508 644.277 104.444 643.213 104.444 641.906V636.857C104.444 635.543 105.501 634.486 106.815 634.479H174.623" stroke="#616670" stroke-linecap="round" stroke-linejoin="round"></path><path d="M162.732 623.289H106.815C105.508 623.289 104.444 622.225 104.444 620.918V615.869C104.444 614.562 105.508 613.498 106.815 613.498H174.623" stroke="#616670" stroke-linecap="round" stroke-linejoin="round"></path><path d="M148.401 602.357L106.846 602.3C105.539 602.3 104.475 601.236 104.475 599.929V594.88C104.475 593.573 105.539 592.509 106.846 592.509H147.78" stroke="#616670" stroke-linecap="round" stroke-linejoin="round"></path><path d="M139.567 581.312H106.846C105.539 581.312 104.475 580.248 104.475 578.941V573.892C104.475 572.585 105.539 571.521 106.846 571.521L147.516 571.314" stroke="#616670" stroke-linecap="round" stroke-linejoin="round"></path><path d="M150.365 560.33H106.846C105.539 560.33 104.475 558.609 104.475 556.488V548.354C104.475 546.212 105.539 544.519 106.846 544.519H154.479" stroke="#616670" stroke-linecap="round" stroke-linejoin="round"></path><path d="M404.783 602.3C406.09 602.3 407.147 601.25 407.154 599.944V594.88C407.154 593.573 406.104 592.517 404.798 592.509C404.798 592.509 404.79 592.509 404.783 592.509H399.827" stroke="#616670" stroke-linecap="round" stroke-linejoin="round"></path><path d="M391.387 581.312H404.785C406.092 581.312 407.148 580.262 407.156 578.955V573.892C407.156 572.585 406.092 571.521 404.785 571.521L275.732 571.314" stroke="#616670" stroke-linecap="round" stroke-linejoin="round"></path><path d="M279.623 560.33H404.783C406.097 560.33 407.154 558.609 407.154 556.488V548.354C407.154 546.212 406.097 544.519 404.783 544.519H300.269" stroke="#616670" stroke-linecap="round" stroke-linejoin="round"></path><path d="M165.262 623.289H167.868" stroke="#616670" stroke-linecap="round" stroke-linejoin="round"></path><path d="M135.917 644.277V659.546H127.305V644.749" stroke="#616670" stroke-linecap="round" stroke-linejoin="round"></path><path d="M135.917 623.289V628.488V634.479" stroke="#616670" stroke-linecap="round" stroke-linejoin="round"></path><path d="M135.917 602.343V608.649V613.491" stroke="#616670" stroke-linecap="round" stroke-linejoin="round"></path><path d="M135.917 581.312V587.346V592.509" stroke="#616670" stroke-linecap="round" stroke-linejoin="round"></path><path d="M127.305 571.314V560.323H135.917V571.314" stroke="#616670" stroke-linecap="round" stroke-linejoin="round"></path><path d="M374.047 571.314V560.323H382.659V571.314" stroke="#616670" stroke-linecap="round" stroke-linejoin="round"></path><path d="M374.047 592.395V581.404H382.659V592.395" stroke="#616670" stroke-linecap="round" stroke-linejoin="round"></path><path d="M374.047 613.477V602.486H382.659V613.477" stroke="#616670" stroke-linecap="round" stroke-linejoin="round"></path><path d="M374.047 634.551V623.324H382.659V634.551" stroke="#616670" stroke-linecap="round" stroke-linejoin="round"></path><path d="M374.047 659.446V644.642H382.659V659.446" stroke="#616670" stroke-linecap="round" stroke-linejoin="round"></path><path d="M127.305 592.509V587.346V581.312" stroke="#616670" stroke-linecap="round" stroke-linejoin="round"></path><path d="M127.305 613.491V608.478V602.357" stroke="#616670" stroke-linecap="round" stroke-linejoin="round"></path><path d="M127.305 634.479V628.916V623.289" stroke="#616670" stroke-linecap="round" stroke-linejoin="round"></path><path d="M391.386 581.312H278.109" stroke="#616670" stroke-linecap="round" stroke-linejoin="round"></path><path d="M399.835 592.509H278.109" stroke="#616670" stroke-linecap="round" stroke-linejoin="round"></path><path d="M404.783 602.3H274.316" stroke="#616670" stroke-linecap="round" stroke-linejoin="round"></path><path d="M404.783 623.339C406.09 623.339 407.154 622.275 407.154 620.968V615.912C407.154 614.605 406.09 613.541 404.783 613.541H399.827" stroke="#616670" stroke-linecap="round" stroke-linejoin="round"></path><path d="M399.835 613.527H278.109" stroke="#616670" stroke-linecap="round" stroke-linejoin="round"></path><path d="M404.783 623.324H274.316" stroke="#616670" stroke-linecap="round" stroke-linejoin="round"></path><path d="M403.628 644.377C404.942 644.377 405.999 643.32 406.006 642.006V636.95C406.006 635.636 404.942 634.579 403.628 634.579H398.679" stroke="#616670" stroke-linecap="round" stroke-linejoin="round"></path><path d="M398.678 634.579H268.74" stroke="#616670" stroke-linecap="round" stroke-linejoin="round"></path><path d="M403.626 644.377H256.885" stroke="#616670" stroke-linecap="round" stroke-linejoin="round"></path><path d="M135.917 560.33H127.305V563.594H135.917V560.33Z" fill="#616670" stroke="#616670" stroke-linecap="round" stroke-linejoin="round"></path><path d="M135.917 581.369H127.305V584.632H135.917V581.369Z" fill="#616670" stroke="#616670" stroke-linecap="round" stroke-linejoin="round"></path><path d="M135.917 602.407H127.305V605.671H135.917V602.407Z" fill="#616670" stroke="#616670" stroke-linecap="round" stroke-linejoin="round"></path><path d="M135.917 623.446H127.305V626.71H135.917V623.446Z" fill="#616670" stroke="#616670" stroke-linecap="round" stroke-linejoin="round"></path><path d="M246.182 544.448H269.898" stroke="#616670" stroke-linecap="round" stroke-linejoin="round"></path><path d="M-5 672.349C-2.50051 669.55 1.63436 668.907 4.86227 670.821C7.97592 672.913 9.17568 676.92 7.71883 680.383C12.1679 680.205 15.8672 683.383 19.7664 685.539C25.2938 688.596 23.6584 696.758 25.2938 697.937C29.9929 701.322 34.8919 696.701 39.1481 701.6C41.9547 704.828 40.7906 708.742 40.8121 713.027C40.8121 714.183 41.7547 715.119 42.9116 715.112C43.2473 715.112 43.5829 715.026 43.8829 714.869C46.4752 713.398 49.3318 712.448 52.2883 712.084C56.5303 711.713 61.2865 713.684 62.7719 717.668C64.7215 722.917 61.2293 730.759 66.2212 733.294C67.9423 734.172 70.1846 733.908 71.6558 735.158C74.548 737.607 71.7129 742.942 74.0767 745.913C75.555 747.769 78.3616 747.798 80.3326 749.162C83.2963 751.226 83.4248 755.589 85.7243 758.396C87.7096 760.803 90.9661 761.638 93.6656 763.195C96.365 764.752 98.7431 768.094 97.2363 770.829" stroke="#35C4BA" stroke-linecap="round" stroke-linejoin="round"></path><path d="M89.4062 650.18C91.8843 650.73 94.4338 651.416 97.069 652.223" stroke="#35C4BA" stroke-linecap="round" stroke-linejoin="round"></path><path d="M20.4736 685.419C20.4736 685.419 35.8276 644.463 82.7895 649.541" stroke="#35C4BA" stroke-linecap="round" stroke-linejoin="round"></path><path d="M436.763 462.122L451.46 401.955L486.167 423.901C497.122 430.828 503.764 442.883 503.764 455.844V502.728C503.678 512.19 495.937 519.796 486.474 519.717C485.553 519.71 484.632 519.624 483.718 519.467L442.219 510.576L417.738 504.292" stroke="#616670" stroke-linecap="round" stroke-linejoin="round"></path><path d="M489.538 560.623L490.423 575.927C490.423 575.927 483.089 588.032 439.334 587.632C434.635 587.575 430.143 585.704 426.801 582.404L421.873 577.555L422.987 506.141" stroke="#616670" stroke-linecap="round" stroke-linejoin="round"></path><path d="M422.483 770.999C422.482 770.999 422.482 770.999 422.482 770.999C422.481 770.999 422.481 770.999 422.481 770.999C422.48 770.999 422.48 770.999 422.479 770.999C422.479 770.999 422.479 770.999 422.478 770.998C422.425 770.992 422.374 770.97 422.328 770.935C422.282 770.899 422.24 770.851 422.205 770.793C422.17 770.735 422.142 770.668 422.123 770.594C422.104 770.52 422.093 770.441 422.094 770.358L422.908 602.641C422.908 602.558 422.919 602.481 422.939 602.41C422.959 602.34 422.987 602.277 423.022 602.225C423.057 602.173 423.099 602.131 423.145 602.103C423.191 602.075 423.242 602.061 423.295 602.063C423.295 602.063 423.296 602.063 423.296 602.063C423.296 602.063 423.297 602.063 423.297 602.063C423.298 602.063 423.298 602.063 423.298 602.063C423.299 602.063 423.299 602.063 423.299 602.063C423.353 602.066 423.404 602.086 423.45 602.12C423.497 602.153 423.539 602.199 423.574 602.256C423.608 602.312 423.637 602.379 423.656 602.452C423.675 602.525 423.686 602.605 423.685 602.688L422.869 770.445C422.868 770.526 422.857 770.603 422.838 770.672C422.818 770.741 422.79 770.802 422.755 770.852C422.72 770.902 422.678 770.941 422.632 770.967C422.586 770.992 422.536 771.004 422.483 770.999Z" fill="#616670"></path><path d="M487.174 520.031L489.281 556.302" stroke="#616670" stroke-linecap="round" stroke-linejoin="round"></path><path d="M408.639 471.384C408.639 471.384 400.584 466.385 391.143 466.178C383.994 466.035 377.231 469.427 373.075 475.24C371.161 477.833 370.047 480.925 369.883 484.146" stroke="#35C4BA" stroke-linecap="round" stroke-linejoin="round"></path><path d="M484.253 580.576L478.068 706.957" stroke="#616670" stroke-linecap="round" stroke-linejoin="round"></path><path d="M442.22 460.322L451.903 489.173L448.176 490.273L442.22 460.322Z" fill="#35C4BA" stroke="#35C4BA" stroke-linecap="round" stroke-linejoin="round"></path><path d="M341.547 480.775L345.118 504.406C346.903 516.104 357.836 524.138 369.534 522.345C371.055 522.109 372.548 521.717 373.983 521.167L448.582 492.387L442.205 460.322L363.271 486.331" stroke="#616670" stroke-linecap="round" stroke-linejoin="round"></path><path d="M426.558 465.514L387.502 399.513L350.424 423.522C340.026 430.242 334.899 442.726 337.569 454.816L339.612 468.256" stroke="#616670" stroke-linecap="round" stroke-linejoin="round"></path><path d="M448.175 490.273L486.146 479.04" stroke="#616670" stroke-linecap="round" stroke-linejoin="round"></path><path d="M374.812 407.711L389.26 429.157L394.209 427.536L392.752 438.169L424.467 466.171" stroke="#616670" stroke-linecap="round" stroke-linejoin="round"></path><path d="M463.786 409.775L458.009 429.157L451.767 427.772L454.766 436.941L440.02 461.05" stroke="#616670" stroke-linecap="round" stroke-linejoin="round"></path><path d="M417.737 504.292L381.48 524.738C375.189 528.294 367.754 529.237 360.77 527.373L351.601 524.937L352.05 517.175C352.05 517.175 360.62 525.345 372.718 521.61L417.737 504.292Z" fill="#616670" stroke="#616670" stroke-linecap="round" stroke-linejoin="round"></path><path d="M404.471 362.071C402.257 357.007 398.301 354.322 393.716 356.85C389.131 359.378 392.288 367.341 394.966 373.347C397.644 379.353 403 376.332 403 376.332L402.685 384.588C402.607 386.644 401.964 388.637 400.829 390.351" stroke="#35C4BA" stroke-linecap="round" stroke-linejoin="round"></path><path d="M441.855 396.678L437.484 394.271" stroke="#616670" stroke-linecap="round" stroke-linejoin="round"></path><path d="M451.46 401.984L443.919 397.821" stroke="#616670" stroke-linecap="round" stroke-linejoin="round"></path><path d="M397.928 361.906C397.928 361.906 402.505 364.27 402.87 369.212" stroke="#35C4BA" stroke-linecap="round" stroke-linejoin="round"></path><path d="M411.111 388.865C416.652 391.957 427.022 399.813 439.819 393.214C452.359 386.787 447.389 345.974 447.389 345.974C447.389 345.974 445.954 328.063 420.68 328.042C397.928 328.042 399.635 356.443 399.635 356.443" stroke="#35C4BA" stroke-linecap="round" stroke-linejoin="round"></path><path d="M394.666 395.207L385.218 400.97" stroke="#616670" stroke-linecap="round" stroke-linejoin="round"></path><path d="M441.855 396.678L423.994 418.066L398.628 392.793" stroke="#616670" stroke-linecap="round" stroke-linejoin="round"></path><path d="M437.486 459.151L426.674 422.544H421.403L417.433 450.06L426.559 465.485L436.764 462.122L437.486 459.151Z" fill="#616670" stroke="#616670" stroke-linecap="round" stroke-linejoin="round"></path><path d="M427.459 413.91H419.925L417.433 418.231L421.403 422.544H426.674L430.494 418.066L427.459 413.91Z" fill="#616670" stroke="#616670" stroke-linecap="round" stroke-linejoin="round"></path><path d="M417.432 413.91C417.432 413.91 409.983 411.703 407.812 419.302L394.658 395.193C394.179 394.328 394.458 393.236 395.286 392.7C396.822 391.786 398.543 391.222 400.328 391.043" stroke="#616670" stroke-linecap="round" stroke-linejoin="round"></path><path d="M429.377 413.91C429.377 413.91 432.005 413.26 434.712 418.059C434.712 418.059 447.502 398.299 442.846 395.207C441.539 394.4 439.918 394.257 438.489 394.821" stroke="#616670" stroke-linecap="round" stroke-linejoin="round"></path><path d="M411.11 388.865C411.11 388.865 416.652 394.807 422.929 398.149C427.736 400.67 433.663 399.127 436.627 394.578C436.627 394.578 427.171 399.906 411.11 388.865Z" fill="#35C4BA" stroke="#35C4BA" stroke-linecap="round" stroke-linejoin="round"></path><path d="M400.17 367.391V377.746C400.199 381.103 398.892 384.33 396.535 386.723C394.935 388.315 393.05 389.337 391.386 387.944C387.894 385.016 394.328 382.281 394.078 386.251C393.828 390.222 387.101 397.556 385.402 394.107C383.973 391.15 390.201 389.108 389.944 395.2L389.622 398.27" stroke="#616670" stroke-linecap="round" stroke-linejoin="round"></path><path d="M400.363 364.984H400.356C399.315 364.984 398.471 365.828 398.471 366.87V367.912C398.471 368.954 399.315 369.798 400.356 369.798H400.363C401.404 369.798 402.249 368.954 402.249 367.912V366.87C402.249 365.828 401.404 364.984 400.363 364.984Z" fill="#616670" stroke="#616670" stroke-linecap="round" stroke-linejoin="round"></path><path opacity="0.2" d="M446.669 342.846C446.669 342.846 444.526 339.582 441.855 342.075C439.184 344.567 427.744 348.102 420.238 342.846C412.733 337.59 409.248 343.903 412.068 346.895C414.889 349.887 416.296 358.2 411.111 361.178C405.927 364.156 403.399 360.078 403.399 360.078C403.399 360.078 400.778 356.315 399.578 355.715C398.378 355.115 400.121 331.256 415.368 328.628C415.368 328.628 433.65 324.778 443.455 336.933C443.455 336.969 446.79 341.046 446.669 342.846Z" fill="#35C4BA"></path><path d="M438.49 358.593L439.454 370.533C439.561 371.869 438.562 373.04 437.226 373.147C437.162 373.147 437.105 373.154 437.041 373.154H432.941" stroke="#35C4BA" stroke-linecap="round" stroke-linejoin="round"></path><path d="M399.636 356.072L425.573 355.658C425.959 355.658 426.345 355.615 426.716 355.615H455.282C455.76 355.615 456.153 356.001 456.153 356.486C456.153 356.543 456.153 356.6 456.138 356.65C455.803 358.379 455.01 361.806 453.768 363.206C452.296 365.549 449.69 366.934 446.926 366.841C441.37 366.841 439.299 362.449 438.542 359.643C438.449 359.3 438.435 358.936 438.499 358.586C437.614 358.186 436.614 358.129 435.686 358.421C435.307 358.521 435.021 358.836 434.971 359.228V359.457C434.943 359.721 434.893 359.985 434.814 360.243C434 363.021 431.958 366.841 426.573 366.841C421.189 366.841 418.846 362.471 418.189 359.643C418.061 359.143 417.982 358.629 417.968 358.107H401.971L399.636 356.072Z" fill="#35C4BA"></path><path d="M448.975 364.477L440.855 357.786" stroke="white" stroke-linecap="round" stroke-linejoin="round"></path><path d="M451.903 361.642L447.218 357.786" stroke="white" stroke-linecap="round" stroke-linejoin="round"></path><path d="M431.72 361.642L427.035 357.786" stroke="white" stroke-linecap="round" stroke-linejoin="round"></path><path d="M429.421 364.477L421.301 357.786" stroke="white" stroke-linecap="round" stroke-linejoin="round"></path><path d="M443.027 379.71H428.309C424.795 379.717 421.325 379.024 418.082 377.675L417.433 377.396" stroke="#35C4BA" stroke-linecap="round" stroke-linejoin="round"></path><path d="M435.855 373.118V379.71" stroke="#35C4BA" stroke-linecap="round" stroke-linejoin="round"></path><path d="M382.659 644.642H374.047V649.162H382.659V644.642Z" fill="#616670" stroke="#616670" stroke-linecap="round" stroke-linejoin="round"></path><path d="M382.659 623.324H374.047V627.845H382.659V623.324Z" fill="#616670" stroke="#616670" stroke-linecap="round" stroke-linejoin="round"></path><path d="M382.659 602.836H374.047V607.356H382.659V602.836Z" fill="#616670" stroke="#616670" stroke-linecap="round" stroke-linejoin="round"></path><path d="M382.659 581.404H374.047V585.925H382.659V581.404Z" fill="#616670" stroke="#616670" stroke-linecap="round" stroke-linejoin="round"></path><path d="M382.659 560.509H374.047V565.029H382.659V560.509Z" fill="#616670" stroke="#616670" stroke-linecap="round" stroke-linejoin="round"></path><path d="M352.058 517.175L349.194 544.448" stroke="#616670" stroke-linecap="round" stroke-linejoin="round"></path><path d="M421.874 577.541C421.874 577.541 417.168 585.832 410.705 585.925" stroke="#616670" stroke-linecap="round" stroke-linejoin="round"></path><path d="M487.731 529.544L433.092 508.234L487.174 520.031L487.731 529.544Z" fill="#616670" stroke="#616670" stroke-linecap="round" stroke-linejoin="round"></path><path d="M403.569 461.051C409.205 461.051 413.774 456.482 413.774 450.845C413.774 445.209 409.205 440.64 403.569 440.64C397.933 440.64 393.364 445.209 393.364 450.845C393.364 456.482 397.933 461.051 403.569 461.051Z" fill="white" stroke="#35C4BA" stroke-linecap="round" stroke-linejoin="round"></path><path d="M404.749 451.352C404.678 451.367 404.614 451.331 404.592 451.26C404.585 451.224 404.592 451.181 404.614 451.153C405.042 450.517 405.999 448.91 405.078 448.296C403.928 447.489 402.743 448.896 400.657 448.817C398.572 448.739 398.222 447.439 398.251 446.675C398.279 445.911 398.622 444.868 400.336 444.718H406.663C406.663 444.718 409.198 444.718 408.67 447.703C408.67 447.66 407.599 450.731 404.749 451.352Z" fill="#35C4BA"></path><path d="M402.39 450.338C402.461 450.324 402.532 450.374 402.547 450.453C402.547 450.488 402.547 450.517 402.525 450.546C402.097 451.174 401.14 452.781 402.061 453.402C403.218 454.202 404.396 452.795 406.482 452.874C408.567 452.952 408.917 454.252 408.895 455.016C408.874 455.78 408.517 456.83 406.81 456.98H400.476C400.476 456.98 397.94 456.98 398.469 453.988C398.469 454.023 399.54 450.967 402.39 450.338Z" fill="#35C4BA"></path><path d="M469.199 436.941L467.156 457.444" stroke="#616670" stroke-linecap="round" stroke-linejoin="round"></path><path d="M376.575 448.017L380.66 466.814" stroke="#616670" stroke-linecap="round" stroke-linejoin="round"></path><path d="M340.118 471.813L340.49 475.162" stroke="#616670" stroke-linecap="round" stroke-linejoin="round"></path><path fill-rule="evenodd" clip-rule="evenodd" d="M464.24 779.876L477.051 776.513L480.209 786.72L486.466 784.807L483.357 774.737L488.708 773.24L491.876 783.508L498.268 781.535L495.123 771.331C495.123 771.331 513.828 766.25 510.792 752.838C510.792 752.838 510.482 740.659 497.96 741.608C497.96 741.608 502.703 736.422 500.953 730.752C500.953 730.752 498.582 721.277 489.124 721.861C486.45 721.978 483.792 722.337 481.183 722.934L478.193 711.988L472.011 713.89L474.727 724.216L470.506 725.519L467.352 715.34L460.931 717.321L463.879 726.881L449.941 731.328L452.365 738.315L457.565 736.887C458.354 736.671 459.196 736.769 459.914 737.161C460.632 737.553 461.17 738.208 461.415 738.989L470.216 767.12C470.397 767.703 470.348 768.333 470.078 768.88C469.808 769.427 469.339 769.85 468.767 770.061L462.739 772.28L464.24 779.876ZM472.29 733.531L476.127 745.998C476.127 745.998 491.384 742.272 489.188 735.14C486.993 728.007 472.29 733.531 472.29 733.531ZM482.416 766.36L478.114 752.424C478.114 752.424 494.941 746.144 497.394 754.11C499.848 762.075 482.416 766.36 482.416 766.36Z" fill="white"></path><path d="M477.051 776.513L477.529 776.365C477.449 776.11 477.183 775.962 476.924 776.03L477.051 776.513ZM464.24 779.876L463.75 779.973C463.777 780.108 463.858 780.226 463.975 780.299C464.092 780.373 464.234 780.394 464.367 780.359L464.24 779.876ZM480.209 786.72L479.731 786.868C479.813 787.131 480.092 787.279 480.355 787.198L480.209 786.72ZM486.466 784.807L486.612 785.285C486.739 785.246 486.846 785.158 486.908 785.041C486.97 784.924 486.983 784.786 486.944 784.659L486.466 784.807ZM483.357 774.737L483.223 774.256C483.093 774.292 482.983 774.379 482.918 774.498C482.854 774.616 482.84 774.756 482.88 774.885L483.357 774.737ZM488.708 773.24L489.185 773.092C489.106 772.833 488.834 772.685 488.573 772.758L488.708 773.24ZM491.876 783.508L491.398 783.655C491.437 783.782 491.525 783.888 491.643 783.95C491.76 784.012 491.897 784.025 492.024 783.986L491.876 783.508ZM498.268 781.535L498.415 782.013C498.679 781.932 498.827 781.652 498.745 781.388L498.268 781.535ZM495.123 771.331L494.992 770.849C494.861 770.884 494.75 770.971 494.685 771.09C494.619 771.209 494.605 771.349 494.645 771.478L495.123 771.331ZM510.792 752.838L510.292 752.85C510.293 752.883 510.297 752.916 510.304 752.948L510.792 752.838ZM497.96 741.608L497.591 741.271C497.453 741.422 497.421 741.643 497.51 741.827C497.6 742.011 497.793 742.122 497.998 742.107L497.96 741.608ZM500.953 730.752L500.468 730.873C500.47 730.882 500.472 730.891 500.475 730.9L500.953 730.752ZM489.124 721.861L489.146 722.36L489.155 722.36L489.124 721.861ZM481.183 722.934L480.701 723.065C480.772 723.324 481.034 723.481 481.295 723.421L481.183 722.934ZM478.193 711.988L478.675 711.856C478.64 711.726 478.553 711.615 478.434 711.55C478.315 711.485 478.175 711.471 478.046 711.51L478.193 711.988ZM472.011 713.89L471.864 713.412C471.608 713.491 471.459 713.757 471.528 714.017L472.011 713.89ZM474.727 724.216L474.875 724.694C475.131 724.615 475.279 724.348 475.211 724.089L474.727 724.216ZM470.506 725.519L470.029 725.667C470.11 725.931 470.39 726.079 470.654 725.997L470.506 725.519ZM467.352 715.34L467.829 715.192C467.748 714.929 467.468 714.781 467.204 714.863L467.352 715.34ZM460.931 717.321L460.784 716.843C460.52 716.924 460.372 717.204 460.453 717.468L460.931 717.321ZM463.879 726.881L464.031 727.357C464.293 727.274 464.438 726.996 464.357 726.734L463.879 726.881ZM449.941 731.328L449.789 730.852C449.66 730.893 449.554 730.984 449.494 731.104C449.433 731.225 449.424 731.364 449.468 731.492L449.941 731.328ZM452.365 738.315L451.893 738.479C451.979 738.728 452.243 738.867 452.497 738.797L452.365 738.315ZM457.565 736.887L457.697 737.37L457.698 737.37L457.565 736.887ZM459.914 737.161L460.154 736.722L460.154 736.722L459.914 737.161ZM461.415 738.989L461.892 738.84L461.892 738.84L461.415 738.989ZM470.216 767.12L470.694 766.972L470.693 766.971L470.216 767.12ZM470.078 768.88L469.63 768.659L470.078 768.88ZM468.767 770.061L468.939 770.531L468.94 770.53L468.767 770.061ZM462.739 772.28L462.566 771.811C462.335 771.896 462.201 772.136 462.248 772.377L462.739 772.28ZM476.127 745.998L475.649 746.145C475.727 746.398 475.988 746.547 476.245 746.484L476.127 745.998ZM472.29 733.531L472.114 733.063C471.867 733.156 471.734 733.426 471.812 733.678L472.29 733.531ZM489.188 735.14L488.71 735.287L489.188 735.14ZM478.114 752.424L477.94 751.955C477.691 752.048 477.559 752.318 477.637 752.571L478.114 752.424ZM482.416 766.36L481.939 766.508C482.017 766.761 482.279 766.909 482.536 766.846L482.416 766.36ZM497.394 754.11L496.917 754.257L497.394 754.11ZM476.924 776.03L464.113 779.392L464.367 780.359L477.178 776.997L476.924 776.03ZM480.687 786.572L477.529 776.365L476.573 776.661L479.731 786.868L480.687 786.572ZM486.32 784.329L480.063 786.242L480.355 787.198L486.612 785.285L486.32 784.329ZM482.88 774.885L485.988 784.954L486.944 784.659L483.835 774.59L482.88 774.885ZM488.573 772.758L483.223 774.256L483.492 775.219L488.842 773.721L488.573 772.758ZM492.354 783.36L489.185 773.092L488.23 773.387L491.398 783.655L492.354 783.36ZM498.12 781.058L491.729 783.03L492.024 783.986L498.415 782.013L498.12 781.058ZM494.645 771.478L497.79 781.683L498.745 781.388L495.6 771.184L494.645 771.478ZM510.304 752.948C511.755 759.357 508.042 763.802 503.813 766.702C501.704 768.148 499.496 769.186 497.811 769.864C496.97 770.202 496.262 770.449 495.765 770.611C495.517 770.692 495.322 770.752 495.19 770.792C495.123 770.811 495.073 770.826 495.04 770.835C495.023 770.84 495.01 770.843 495.002 770.846C494.998 770.847 494.995 770.848 494.994 770.848C494.993 770.848 494.992 770.848 494.992 770.849C494.992 770.849 494.992 770.849 494.991 770.849C494.992 770.849 494.992 770.849 495.123 771.331C495.254 771.814 495.254 771.814 495.254 771.814C495.254 771.813 495.255 771.813 495.255 771.813C495.256 771.813 495.257 771.813 495.258 771.812C495.261 771.812 495.265 771.811 495.27 771.809C495.28 771.806 495.294 771.802 495.313 771.797C495.35 771.787 495.404 771.771 495.474 771.75C495.615 771.708 495.818 771.646 496.076 771.562C496.59 771.394 497.32 771.139 498.184 770.792C499.912 770.097 502.191 769.027 504.379 767.526C508.744 764.533 512.865 759.73 511.28 752.727L510.304 752.948ZM497.998 742.107C501.045 741.876 503.31 742.445 505.002 743.398C506.696 744.352 507.849 745.711 508.636 747.112C509.424 748.515 509.84 749.954 510.058 751.047C510.166 751.593 510.225 752.048 510.257 752.366C510.273 752.524 510.281 752.648 510.286 752.731C510.289 752.773 510.29 752.804 510.291 752.824C510.292 752.834 510.292 752.841 510.292 752.846C510.292 752.848 510.292 752.849 510.292 752.85C510.292 752.851 510.292 752.851 510.292 752.851C510.292 752.851 510.292 752.851 510.292 752.851C510.292 752.851 510.292 752.85 510.792 752.838C511.292 752.825 511.292 752.825 511.292 752.824C511.292 752.824 511.292 752.824 511.292 752.823C511.292 752.823 511.292 752.822 511.292 752.821C511.292 752.819 511.292 752.816 511.292 752.812C511.291 752.805 511.291 752.795 511.29 752.782C511.289 752.756 511.287 752.719 511.285 752.671C511.279 752.576 511.269 752.439 511.252 752.267C511.218 751.922 511.154 751.434 511.038 750.852C510.807 749.691 510.362 748.144 509.508 746.622C508.652 745.097 507.379 743.589 505.493 742.527C503.605 741.463 501.136 740.866 497.922 741.11L497.998 742.107ZM500.475 730.9C501.298 733.565 500.602 736.142 499.662 738.089C499.195 739.059 498.674 739.858 498.269 740.415C498.067 740.694 497.895 740.91 497.775 741.056C497.715 741.129 497.667 741.184 497.636 741.22C497.62 741.238 497.608 741.251 497.601 741.26C497.597 741.264 497.594 741.267 497.592 741.269C497.592 741.27 497.591 741.271 497.591 741.271C497.591 741.271 497.591 741.271 497.591 741.271C497.591 741.271 497.591 741.271 497.591 741.271C497.591 741.271 497.591 741.271 497.96 741.608C498.329 741.946 498.329 741.945 498.329 741.945C498.329 741.945 498.329 741.945 498.33 741.945C498.33 741.945 498.33 741.944 498.331 741.944C498.332 741.943 498.333 741.941 498.334 741.94C498.337 741.936 498.341 741.932 498.346 741.926C498.357 741.915 498.371 741.898 498.39 741.877C498.427 741.835 498.48 741.773 498.546 741.693C498.678 741.533 498.863 741.3 499.078 741.003C499.509 740.41 500.064 739.559 500.563 738.523C501.558 736.46 502.358 733.608 501.431 730.604L500.475 730.9ZM489.155 722.36C493.68 722.08 496.49 724.195 498.19 726.393C499.044 727.498 499.616 728.624 499.974 729.475C500.153 729.899 500.277 730.254 500.357 730.5C500.396 730.623 500.425 730.718 500.443 730.782C500.452 730.814 500.458 730.838 500.463 730.854C500.465 730.861 500.466 730.867 500.467 730.87C500.467 730.872 500.468 730.873 500.468 730.873C500.468 730.874 500.468 730.874 500.468 730.874C500.468 730.874 500.468 730.874 500.468 730.874C500.468 730.874 500.468 730.873 500.953 730.752C501.438 730.631 501.438 730.63 501.438 730.63C501.438 730.63 501.438 730.63 501.437 730.629C501.437 730.629 501.437 730.628 501.437 730.627C501.436 730.625 501.436 730.623 501.435 730.62C501.434 730.614 501.432 730.606 501.429 730.596C501.423 730.576 501.415 730.546 501.405 730.509C501.384 730.435 501.352 730.327 501.308 730.192C501.221 729.923 501.087 729.541 500.895 729.087C500.514 728.179 499.902 726.973 498.981 725.782C497.13 723.388 494.026 721.057 489.093 721.362L489.155 722.36ZM481.295 723.421C483.874 722.831 486.502 722.476 489.146 722.36L489.102 721.361C486.398 721.479 483.71 721.843 481.072 722.446L481.295 723.421ZM477.711 712.12L480.701 723.065L481.666 722.802L478.675 711.856L477.711 712.12ZM472.158 714.368L478.34 712.466L478.046 711.51L471.864 713.412L472.158 714.368ZM475.211 724.089L472.495 713.762L471.528 714.017L474.244 724.343L475.211 724.089ZM470.654 725.997L474.875 724.694L474.58 723.738L470.359 725.042L470.654 725.997ZM466.874 715.488L470.029 725.667L470.984 725.371L467.829 715.192L466.874 715.488ZM461.079 717.799L467.499 715.818L467.204 714.863L460.784 716.843L461.079 717.799ZM464.357 726.734L461.409 717.173L460.453 717.468L463.402 727.028L464.357 726.734ZM450.093 731.804L464.031 727.357L463.728 726.405L449.789 730.852L450.093 731.804ZM452.837 738.151L450.413 731.164L449.468 731.492L451.893 738.479L452.837 738.151ZM457.433 736.405L452.233 737.833L452.497 738.797L457.697 737.37L457.433 736.405ZM460.154 736.722C459.322 736.268 458.346 736.154 457.433 736.405L457.698 737.37C458.362 737.187 459.07 737.27 459.675 737.599L460.154 736.722ZM461.892 738.84C461.609 737.935 460.986 737.176 460.154 736.722L459.675 737.599C460.279 737.929 460.732 738.481 460.937 739.138L461.892 738.84ZM470.693 766.971L461.892 738.84L460.937 739.138L469.739 767.27L470.693 766.971ZM470.527 769.101C470.853 768.439 470.913 767.677 470.694 766.972L469.739 767.269C469.882 767.729 469.843 768.227 469.63 768.659L470.527 769.101ZM468.94 770.53C469.632 770.275 470.2 769.763 470.527 769.101L469.63 768.659C469.416 769.091 469.046 769.425 468.593 769.592L468.94 770.53ZM462.911 772.749L468.939 770.531L468.594 769.592L462.566 771.811L462.911 772.749ZM464.731 779.779L463.229 772.183L462.248 772.377L463.75 779.973L464.731 779.779ZM476.605 745.851L472.768 733.384L471.812 733.678L475.649 746.145L476.605 745.851ZM488.71 735.287C489.197 736.867 488.734 738.266 487.689 739.526C486.63 740.802 484.998 741.9 483.252 742.799C481.513 743.694 479.701 744.374 478.32 744.83C477.63 745.057 477.05 745.228 476.643 745.343C476.44 745.4 476.28 745.442 476.171 745.471C476.117 745.485 476.076 745.495 476.048 745.502C476.034 745.506 476.024 745.508 476.017 745.51C476.014 745.511 476.012 745.511 476.01 745.512C476.009 745.512 476.009 745.512 476.008 745.512C476.008 745.512 476.008 745.512 476.008 745.512C476.008 745.512 476.008 745.512 476.127 745.998C476.245 746.484 476.246 746.484 476.246 746.484C476.246 746.484 476.246 746.484 476.247 746.483C476.247 746.483 476.248 746.483 476.249 746.483C476.251 746.482 476.254 746.482 476.258 746.481C476.266 746.479 476.278 746.476 476.293 746.472C476.323 746.464 476.367 746.453 476.424 746.438C476.538 746.409 476.704 746.364 476.913 746.305C477.332 746.188 477.927 746.012 478.633 745.779C480.043 745.314 481.908 744.616 483.71 743.688C485.503 742.764 487.274 741.593 488.458 740.164C489.656 738.72 490.277 736.978 489.666 734.992L488.71 735.287ZM472.29 733.531C472.466 733.999 472.466 733.999 472.466 733.999C472.466 733.999 472.466 733.999 472.466 733.999C472.466 733.999 472.467 733.999 472.468 733.999C472.469 733.998 472.472 733.997 472.475 733.996C472.481 733.994 472.491 733.99 472.505 733.985C472.531 733.975 472.571 733.961 472.624 733.942C472.73 733.904 472.886 733.849 473.086 733.782C473.486 733.647 474.062 733.461 474.76 733.26C476.158 732.858 478.037 732.397 479.977 732.157C481.926 731.916 483.891 731.902 485.484 732.36C487.055 732.812 488.224 733.707 488.71 735.287L489.666 734.992C489.055 733.006 487.562 731.917 485.76 731.399C483.978 730.886 481.856 730.917 479.854 731.165C477.844 731.414 475.911 731.889 474.483 732.299C473.769 732.505 473.179 732.695 472.766 732.834C472.56 732.904 472.398 732.961 472.287 733C472.232 733.02 472.189 733.036 472.16 733.046C472.145 733.052 472.134 733.056 472.127 733.059C472.123 733.06 472.12 733.061 472.118 733.062C472.117 733.062 472.116 733.063 472.115 733.063C472.115 733.063 472.115 733.063 472.115 733.063C472.114 733.063 472.114 733.063 472.29 733.531ZM477.637 752.571L481.939 766.508L482.894 766.213L478.592 752.276L477.637 752.571ZM497.872 753.963C497.195 751.763 495.515 750.567 493.48 750.004C491.464 749.447 489.054 749.493 486.771 749.784C484.48 750.075 482.274 750.618 480.644 751.086C479.828 751.321 479.154 751.537 478.683 751.695C478.448 751.775 478.263 751.839 478.136 751.884C478.073 751.906 478.025 751.924 477.991 751.936C477.975 751.942 477.962 751.947 477.954 751.95C477.949 751.952 477.946 751.953 477.944 751.954C477.942 751.954 477.941 751.955 477.941 751.955C477.941 751.955 477.94 751.955 477.94 751.955C477.94 751.955 477.94 751.955 478.114 752.424C478.289 752.892 478.289 752.892 478.289 752.892C478.289 752.892 478.289 752.892 478.29 752.892C478.29 752.892 478.291 752.892 478.291 752.891C478.293 752.891 478.296 752.89 478.3 752.888C478.307 752.885 478.319 752.881 478.334 752.876C478.365 752.864 478.411 752.848 478.472 752.826C478.593 752.783 478.772 752.72 479.001 752.643C479.46 752.489 480.12 752.277 480.92 752.048C482.522 751.587 484.675 751.058 486.897 750.776C489.129 750.492 491.385 750.462 493.214 750.968C495.023 751.468 496.367 752.474 496.917 754.257L497.872 753.963ZM482.416 766.36C482.536 766.846 482.536 766.846 482.536 766.846C482.536 766.846 482.537 766.846 482.537 766.846C482.538 766.845 482.539 766.845 482.54 766.845C482.542 766.844 482.546 766.843 482.55 766.842C482.559 766.84 482.572 766.837 482.589 766.832C482.624 766.824 482.674 766.811 482.738 766.794C482.868 766.76 483.057 766.709 483.296 766.642C483.774 766.508 484.452 766.307 485.258 766.041C486.868 765.51 488.996 764.717 491.053 763.668C493.101 762.622 495.119 761.304 496.471 759.708C497.835 758.096 498.55 756.162 497.872 753.963L496.917 754.257C497.466 756.04 496.921 757.629 495.708 759.061C494.481 760.509 492.601 761.755 490.598 762.777C488.603 763.795 486.527 764.57 484.945 765.091C484.155 765.352 483.491 765.548 483.025 765.679C482.792 765.745 482.609 765.794 482.485 765.827C482.423 765.843 482.375 765.855 482.343 765.863C482.328 765.867 482.316 765.87 482.308 765.872C482.304 765.873 482.301 765.874 482.299 765.874C482.298 765.874 482.298 765.875 482.297 765.875C482.297 765.875 482.297 765.875 482.297 765.875C482.297 765.875 482.297 765.875 482.416 766.36Z" fill="#616670"></path></g></svg>