<svg xmlns="http://www.w3.org/2000/svg" xmlns:xlink="http://www.w3.org/1999/xlink" width="103px" height="103px" viewBox="0 0 103 103"><title>Zengo-emoji-modified</title><g id="Page-1" stroke="none" stroke-width="1" fill="none" fill-rule="evenodd"><g id="Zengo-emoji-modified" transform="translate(0.000000, 1.000000)"><path d="M31,8.6 C28,9.06 24.25,10.88 21.35,16.39 C18.46,10.88 14.72,9.06 11.7,8.6 C7.97643926,8.051701 4.28618212,9.78458589 2.33,13 C-4.43,24.37 16.82,43.36 16.82,43.36 L21.38,48.16 L26,43.36 C26,43.36 47.2,24.37 40.44,13 C38.4714449,9.76063847 34.7466632,8.02451143 31,8.6 Z" id="Path" fill="#35C4BA" fill-rule="nonzero"></path><path d="M87.67,8.6 C84.67,9.06 80.92,10.88 78.02,16.39 C75.12,10.88 71.38,9.06 68.37,8.6 C64.6468447,8.05444707 60.9580362,9.78665169 59,13 C52.21,24.37 73.45,43.36 73.45,43.36 L78,48.16 L82.57,43.36 C82.57,43.36 103.81,24.36 97.06,13.02 C95.1043978,9.79159102 91.4042142,8.04986454 87.67,8.6 L87.67,8.6 Z" id="Path" fill="#35C4BA" fill-rule="nonzero"></path><path d="M21.38,10.83 C38.3590902,-1.79372102 61.456535,-2.32686232 79,9.5" id="Path" stroke="#616670" stroke-width="2" stroke-linecap="round" stroke-linejoin="round"></path><path d="M2,41.8 C2.58153425,38.6575798 3.46909463,35.5795874 4.65,32.61" id="Path" stroke="#616670" stroke-width="2" stroke-linecap="round" stroke-linejoin="round"></path><path d="M1.2,51 C1.19855102,49.0752348 1.30873603,47.1520056 1.53,45.24" id="Path" stroke="#616670" stroke-width="2" stroke-linecap="round" stroke-linejoin="round"></path><path d="M97,31.28 C104.594011,48.9871407 101.32245,69.4835631 88.5935203,83.9468332 C75.8645907,98.4101034 55.9498861,104.259119 37.4214471,98.9762427 C18.893008,93.6933665 5.05740356,78.2213761 1.87,59.22" id="Path" stroke="#616670" stroke-width="2" stroke-linecap="round" stroke-linejoin="round"></path><path d="M50.92,94.397139 C63.6004579,94.397139 73.88,88.1036691 73.88,83.47 C73.88,78.8363309 63.6004579,75.08 50.92,75.08 C38.2395421,75.08 27.96,78.8363309 27.96,83.47 C27.96,88.1036691 38.2395421,94.397139 50.92,94.397139 Z" id="Oval" stroke="#616670" stroke-width="2" fill-rule="nonzero"></path><path d="M86.58,58.14 C86.7957207,71.0206229 80.0474908,83.0162064 68.9271086,89.5195965 C57.8067264,96.0229865 44.0432736,96.0229865 32.9228914,89.5195965 C21.8025092,83.0162064 15.0542793,71.0206229 15.27,58.14 L86.58,58.14 Z" id="Path" stroke="#616670" stroke-width="2" stroke-linecap="round" stroke-linejoin="round"></path></g></g></svg>