<svg xmlns="http://www.w3.org/2000/svg" xmlns:xlink="http://www.w3.org/1999/xlink" width="1555px" height="325px" viewBox="0 0 1555 325"><title>Keyless-Top3</title><g id="Page-1" stroke="none" stroke-width="1" fill="none" fill-rule="evenodd"><g id="Keyless-Top3" transform="translate(1.000000, 1.000000)"><g id="Group" stroke-linecap="round" stroke-linejoin="round" transform="translate(0.000000, 23.000000)" stroke="#616670" stroke-width="2"><path d="M166.090217,194.8 L127.380217,241.39 C123.096631,246.51236 115.482139,247.217984 110.330217,242.97 L109.480217,242.26 C104.357857,237.976414 103.652233,230.361923 107.900217,225.21 L186.900217,130.08 C191.193119,124.93585 198.841867,124.242137 203.990217,128.53 L204.840217,129.23 C209.964703,133.513767 210.666248,141.132455 206.410217,146.28 L199.410217,154.73" id="Path"></path><line x1="186.300217" y1="170.46" x2="176.010217" y2="182.85" id="Path"></line><path d="M109.900217,242.62 L37.320217,182.32 C27.390217,174.07 25.460217,160.01 33.010217,150.93 L100.180217,70.07 C107.730217,60.98 121.900217,60.3 131.830217,68.55 L204.410217,128.85" id="Path"></path><line x1="107.900217" y1="225.21" x2="64.290217" y2="188.98" id="Path"></line><line x1="56.980217" y1="182.91" x2="46.120217" y2="173.89" id="Path"></line><path d="M33.770217,150.01 C11.6623151,141.076547 -1.96930195,118.70045 0.232092064,94.9576666 C2.43348608,71.214883 19.9467138,51.7264879 43.320217,47.01 C44.8512108,46.7150558 46.4354018,47.0849918 47.6774325,48.0274852 C48.9194633,48.9699785 49.70217,50.3961216 49.830217,51.95 L49.830217,51.95 C50.0617901,54.7377378 48.1639959,57.2552198 45.420217,57.8 C26.3036963,61.7019934 12.2101638,77.9856074 11.090734,97.4641544 C9.97130425,116.942701 22.1065739,134.733682 40.650217,140.8" id="Path"></path><line x1="64.290217" y1="40.86" x2="67.050217" y2="0" id="Path"></line><line x1="78.990217" y1="42.06" x2="90.150217" y2="19.47" id="Path"></line><line x1="88.030217" y1="50.66" x2="115.680217" y2="38.42" id="Path"></line><line x1="121.670217" y1="35.57" x2="130.100217" y2="31.74" id="Path"></line></g><g id="Group-5" stroke-linecap="round" stroke-linejoin="round" transform="translate(466.000000, 146.000000)" stroke="#616670" stroke-width="2"><line x1="22.42" y1="0" x2="22.42" y2="14.99" id="Path"></line><line x1="22.42" y1="29.84" x2="22.42" y2="44.83" id="Path"></line><line x1="44.83" y1="22.42" x2="29.84" y2="22.42" id="Path"></line><line x1="14.99" y1="22.42" x2="-1.0658141e-13" y2="22.42" id="Path"></line></g><g id="Group-2" stroke-linecap="round" stroke-linejoin="round" transform="translate(316.000000, 45.000000)" fill="#FFFFFF" fill-rule="nonzero" stroke="#35C4BA" stroke-width="2"><path d="M16.5150409,99.3798419 L0.725040927,76.3198419 C-4.15495907,69.2098419 16.1150409,46.8398419 45.9950409,26.3198419 C75.8750409,5.79984188 104.035041,-4.92015812 108.935041,2.19984188 L124.725041,25.2598419" id="Path"></path><ellipse id="Oval" transform="translate(70.627807, 62.332481) rotate(-34.410000) translate(-70.627807, -62.332481) " cx="70.6278072" cy="62.3324815" rx="65.58" ry="15.62"></ellipse></g><g id="Group-3" stroke-linecap="round" stroke-linejoin="round" transform="translate(596.000000, 173.000000)" fill="#FFFFFF" fill-rule="nonzero" stroke="#35C4BA" stroke-width="2"><path d="M116.942041,100.649212 L98.1420413,121.339212 C92.3320413,127.719212 65.9020413,113.139212 39.1420413,88.7792122 C12.3820413,64.4192122 -4.6879587,39.4892122 1.1420413,33.0992122 L19.8820413,12.4192122" id="Path"></path><ellipse id="Oval" transform="translate(68.410603, 56.580000) rotate(-47.720000) translate(-68.410603, -56.580000) " cx="68.4106032" cy="56.5800002" rx="15.62" ry="65.58"></ellipse></g><path d="M1081.50506,197 L1290.74506,53 L1064.83506,169.13 C1060.83565,171.184722 1057.86486,174.80293 1056.62787,179.125779 C1055.39087,183.448628 1056.00059,188.090657 1058.30506,191.95 L1058.30506,191.95 C1060.61454,195.808989 1064.41748,198.540719 1068.81185,199.497254 C1073.20623,200.453789 1077.80054,199.549907 1081.50506,197 Z" id="Path" stroke="#616670" stroke-width="2" fill="#616670" fill-rule="nonzero" opacity="0.1" stroke-linecap="round" stroke-linejoin="round"></path><circle id="Oval" stroke="#616670" stroke-width="2" fill="#616670" fill-rule="nonzero" opacity="0.1" stroke-linecap="round" stroke-linejoin="round" cx="1508.16506" cy="44.78" r="44.78"></circle><g id="Group-4" transform="translate(1356.000000, 216.000000)"><path d="M52.9876552,106.032529 C52.9876552,106.032529 71.9876552,91.3425294 92.6976552,88.0925294" id="Path" stroke="#35C4BA" stroke-width="2" stroke-linecap="round" stroke-linejoin="round"></path><path d="M3.3076552,35.9625294 C7.7376552,34.6725294 11.9176552,38.2625294 16.0476552,39.2925294 C18.4618447,39.787028 20.938831,39.8983911 23.3876552,39.6225294 L31.7976552,39.0225294 L31.0576552,38.7125294 C33.0576552,40.8125294 32.8076552,43.9125294 32.0576552,46.4925294 C31.1476552,49.4225294 29.3576552,52.0125294 28.2576552,54.8725294 C27.708367,56.254824 27.3875131,57.717242 27.3076552,59.2025294 C27.2276552,60.7525294 27.5476552,62.3725294 26.4776552,63.6625294 C24.7576552,65.7625294 21.6876552,67.3225294 22.6676552,70.5625294 C22.8324207,71.1228156 23.4127343,71.4506263 23.9776552,71.3025294 L36.8376552,68.0625294 C39.8376552,67.3125294 44.6076552,66.4025294 45.4776552,70.5125294 C46.2876552,74.3425294 43.5776552,78.0025294 43.7676552,81.8725294 C43.8676552,83.8725294 44.4376552,85.8725294 44.5576552,87.8725294 C44.660348,89.680211 44.4952296,91.4931435 44.0676552,93.2525294 C43.1235905,97.1747292 40.9556086,100.694635 37.8776552,103.302529 C36.8276552,104.182529 38.3376552,105.682529 39.3776552,104.802529 C43.8919428,100.934856 46.5555357,95.3351338 46.7076552,89.3925294 C46.5944922,87.0991284 46.3406818,84.8148344 45.9476552,82.5525294 C45.5176552,78.2225294 48.4976552,74.2925294 47.5276552,69.9425294 C46.6276552,65.9425294 42.7676552,64.8925294 39.1676552,65.4025294 C36.692255,65.8454721 34.2421354,66.4196145 31.8276552,67.1225294 L23.4076552,69.2425294 L24.7176552,69.9925294 C24.0676552,67.8225294 27.0776552,66.3125294 28.2076552,64.8825294 C29.6276552,63.0925294 29.2976552,61.1025294 29.4376552,58.9825294 C29.7476552,54.4425294 33.0976552,50.8125294 34.2576552,46.5125294 C34.7881091,44.714899 34.8976033,42.8192804 34.5776552,40.9725294 C34.3176552,39.6725294 33.3976552,37.0725294 31.8476552,36.8925294 C30.5087304,36.8698963 29.1703693,36.9635816 27.8476552,37.1725294 L23.8476552,37.4625294 C21.3113643,37.7920715 18.7373271,37.6838335 16.2376552,37.1425294 C11.7676552,35.8925294 7.6076552,32.5025294 2.7476552,33.9125294 C2.29990879,34.142763 2.0758911,34.6561873 2.2116423,35.141013 C2.34739349,35.6258387 2.80545389,35.9482812 3.3076552,35.9125294 L3.3076552,35.9625294 Z" id="Path" fill="#35C4BA" fill-rule="nonzero"></path><path d="M83.9176552,8.84252939 C80.6876552,7.03252939 76.3276552,9.15252939 74.1976552,11.7725294 C72.8976552,13.3725294 72.4476552,15.4825294 71.7676552,17.3825294 C71.1029785,19.6588033 69.5592829,21.5767282 67.4776552,22.7125294 C65.4776552,23.7925294 63.7476552,24.9125294 62.7976552,27.0325294 C62.0376768,28.9073878 61.7959001,30.9521281 62.0976552,32.9525294 C62.3865933,35.0965819 62.9097183,37.2024957 63.6576552,39.2325294 C64.3076552,41.0925294 65.1776552,43.1625294 67.1476552,43.9325294 C68.7752704,44.6891792 70.7115579,44.1039901 71.6476552,42.5725294 C72.1576552,41.5725294 71.9476552,40.3825294 73.0176552,39.8025294 C74.2957073,39.2501066 75.6403995,38.8668693 77.0176552,38.6625294 C79.4476552,38.1225294 82.2276552,37.9925294 84.3276552,39.5725294 C85.1376552,40.1725294 86.1676552,41.3725294 85.8776552,42.4825294 C85.5876552,43.5925294 83.7076552,44.3225294 82.7676552,44.8025294 C78.3576552,47.0925294 73.3676552,48.5725294 70.2276552,52.6725294 C68.8711564,54.361549 68.0587421,56.4222222 67.8976552,58.5825294 C67.9102588,60.8545545 68.769561,63.0402485 70.3076552,64.7125294 C71.8865911,66.8092429 73.8645211,68.5730671 76.1276552,69.9025294 C78.4526964,71.0625085 81.1262449,71.3156044 83.6276552,70.6125294 C86.5276552,69.9725294 89.1176552,69.2625294 92.0376552,70.2725294 C94.7774721,71.4061334 97.3037359,72.9989986 99.5076552,74.9825294 C100.567655,75.8325294 102.077655,74.3425294 101.007655,73.4825294 C97.5876552,70.7225294 93.7876552,67.7725294 89.2076552,67.5725294 C86.8076552,67.4625294 84.5576552,68.3325294 82.2076552,68.7425294 C79.8046467,69.185913 77.3296517,68.5249351 75.4676552,66.9425294 C73.5784568,65.5096135 71.9741653,63.7357351 70.7376552,61.7125294 C69.7007621,59.6882082 69.7955388,57.2695069 70.9876552,55.3325294 C73.3776552,50.9925294 78.2276552,49.3325294 82.4376552,47.3325294 C84.1976552,46.5025294 86.7876552,45.5325294 87.6776552,43.6625294 C88.5676552,41.7925294 87.5676552,39.7425294 86.2376552,38.4525294 C82.7976552,35.1225294 77.6376552,36.1625294 73.5376552,37.3925294 C72.6669099,37.5923255 71.850893,37.9815553 71.1476552,38.5325294 C70.4929097,39.2426465 70.0707345,40.1358435 69.9376552,41.0925294 C69.8401721,41.5394937 69.5275245,41.9090986 69.1029112,42.0793444 C68.678298,42.2495903 68.1969141,42.1983472 67.8176552,41.9425294 C66.9029745,41.3479771 66.2404837,40.4361618 65.9576552,39.3825294 C64.6276552,35.9525294 62.9576552,31.0325294 64.9576552,27.5425294 C66.1676552,25.3325294 68.7576552,24.7625294 70.6076552,23.2425294 C72.4576552,21.7225294 73.2976552,19.5725294 74.0376552,17.4225294 C74.7776552,15.2725294 75.3176552,13.2525294 77.2476552,11.8525294 C78.7076552,10.7125294 81.0576552,9.71252939 82.8476552,10.7125294 C83.3474037,10.9374988 83.936345,10.7484929 84.2118513,10.274725 C84.4873577,9.80095703 84.3603494,9.19561091 83.9176552,8.87252939 L83.9176552,8.84252939 Z" id="Path" fill="#35C4BA" fill-rule="nonzero"></path><path d="M19.1676552,12.3925294 C19.1676552,12.3925294 46.8376552,13.9925294 61.3476552,0.83252939" id="Path" stroke="#35C4BA" stroke-width="2" stroke-linecap="round" stroke-linejoin="round"></path><path d="M10.8776552,85.1825294 C9.73144125,83.6715265 8.66337531,82.1028047 7.6776552,80.4825294" id="Path" stroke="#616670" stroke-width="2" stroke-linecap="round" stroke-linejoin="round"></path><path d="M4.8576552,75.1525294 C-6.68850849,50.0489078 2.98909149,20.2868003 27.0916742,6.77490849 C51.1942569,-6.73698334 81.6335054,0.535645541 97.025008,23.4835727 C112.416511,46.4314999 107.595205,77.3538865 85.9481904,94.5269028 C64.3011762,111.699919 33.092734,109.360664 14.2476552,89.1525294" id="Path" stroke="#616670" stroke-width="2" stroke-linecap="round" stroke-linejoin="round"></path></g><circle id="Oval" stroke="#35C4BA" stroke-width="2" stroke-linecap="round" stroke-linejoin="round" cx="949.74" cy="89.74" r="21.74"></circle></g></g></svg>