<svg width="926" height="307" viewBox="0 0 926 307" fill="none" xmlns="http://www.w3.org/2000/svg">
<g filter="url(#filter0_d)">
<path d="M16 108.48C16 76.109 16 59.9234 22.2998 47.5593C27.8413 36.6836 36.6836 27.8413 47.5593 22.2998C59.9234 16 76.109 16 108.48 16H183.52C215.891 16 232.077 16 244.441 22.2998C255.316 27.8413 264.159 36.6836 269.7 47.5593C276 59.9234 276 76.109 276 108.48V183.52C276 215.891 276 232.077 269.7 244.441C264.159 255.316 255.316 264.159 244.441 269.7C232.077 276 215.891 276 183.52 276H108.48C76.109 276 59.9234 276 47.5593 269.7C36.6836 264.159 27.8413 255.316 22.2998 244.441C16 232.077 16 215.891 16 183.52V108.48Z" fill="url(#paint0_linear)"/>
<g filter="url(#filter1_i)">
<path d="M129.229 137.598C134.182 135.568 136.246 138.917 133.19 142.842C125.334 152.932 113.171 174.238 128.514 183.739C135.375 187.988 145.627 184.872 154.237 182.01L155.618 181.549C157.893 180.789 160.029 180.078 161.925 179.566C174.101 176.277 186.948 173.144 199.551 175.81C214.029 178.871 223.847 193.388 221.934 208.145C220.035 222.788 206.974 233.337 192.39 233.337H103.408C86.1347 233.68 74.1514 221.142 72.8784 206.3C72.6589 203.746 72.7365 201.133 73.1327 198.517C75.7199 181.501 85.3736 167.677 97.2793 156.028C104.962 148.512 118.802 140.781 129.022 137.661C129.09 137.641 129.161 137.625 129.229 137.598ZM188.592 58.1553C205.865 57.8121 217.85 70.3502 219.121 85.1924C219.341 87.7459 219.265 90.3597 218.867 92.9752C216.281 109.991 206.626 123.815 194.72 135.464C187.038 142.98 173.199 150.711 162.977 153.831C162.91 153.851 162.839 153.868 162.771 153.894C157.818 155.924 155.754 152.575 158.81 148.65C166.666 138.56 178.829 117.254 163.487 107.754C154.4 102.126 139.366 109.416 130.077 111.926C117.899 115.215 105.054 118.348 92.4494 115.682C77.9714 112.621 68.1526 98.1039 70.0662 83.3472C71.9649 68.7042 85.0263 58.1553 99.61 58.1553H188.592Z" fill="url(#paint1_linear)"/>
</g>
<path d="M47.5593 269.7L47.1054 270.591L47.5593 269.7ZM22.2998 244.441L21.4088 244.895L22.2998 244.441ZM269.7 244.441L268.809 243.987L269.7 244.441ZM244.441 269.7L243.987 268.809L244.441 269.7ZM244.441 22.2998L244.895 21.4088L244.441 22.2998ZM47.5593 22.2998L47.1054 21.4088L47.5593 22.2998ZM22.2998 47.5593L21.4088 47.1054L22.2998 47.5593ZM108.48 17H183.52V15H108.48V17ZM275 108.48V183.52H277V108.48H275ZM183.52 275H108.48V277H183.52V275ZM17 183.52V108.48H15V183.52H17ZM108.48 275C92.278 275 80.1866 274.999 70.5985 274.216C61.0221 273.433 54.0309 271.875 48.0133 268.809L47.1054 270.591C53.4519 273.825 60.7355 275.417 70.4356 276.209C80.1241 277.001 92.311 277 108.48 277V275ZM15 183.52C15 199.689 14.9992 211.876 15.7908 221.564C16.5833 231.264 18.1751 238.548 21.4088 244.895L23.1908 243.987C20.1247 237.969 18.5666 230.978 17.7842 221.401C17.0008 211.813 17 199.722 17 183.52H15ZM48.0133 268.809C37.3257 263.364 28.6364 254.674 23.1908 243.987L21.4088 244.895C27.0462 255.959 36.0414 264.954 47.1054 270.591L48.0133 268.809ZM275 183.52C275 199.722 274.999 211.813 274.216 221.401C273.433 230.978 271.875 237.969 268.809 243.987L270.591 244.895C273.825 238.548 275.417 231.264 276.209 221.564C277.001 211.876 277 199.689 277 183.52H275ZM183.52 277C199.689 277 211.876 277.001 221.564 276.209C231.264 275.417 238.548 273.825 244.895 270.591L243.987 268.809C237.969 271.875 230.978 273.433 221.401 274.216C211.813 274.999 199.722 275 183.52 275V277ZM268.809 243.987C263.364 254.674 254.674 263.364 243.987 268.809L244.895 270.591C255.959 264.954 264.954 255.959 270.591 244.895L268.809 243.987ZM183.52 17C199.722 17 211.813 17.0008 221.401 17.7842C230.978 18.5666 237.969 20.1247 243.987 23.1908L244.895 21.4088C238.548 18.1751 231.264 16.5833 221.564 15.7908C211.876 14.9992 199.689 15 183.52 15V17ZM277 108.48C277 92.311 277.001 80.1241 276.209 70.4356C275.417 60.7355 273.825 53.4519 270.591 47.1054L268.809 48.0133C271.875 54.0309 273.433 61.0221 274.216 70.5985C274.999 80.1866 275 92.278 275 108.48H277ZM243.987 23.1908C254.674 28.6364 263.364 37.3257 268.809 48.0133L270.591 47.1054C264.954 36.0414 255.959 27.0462 244.895 21.4088L243.987 23.1908ZM108.48 15C92.311 15 80.1241 14.9992 70.4356 15.7908C60.7355 16.5833 53.4519 18.1751 47.1054 21.4088L48.0133 23.1908C54.0309 20.1247 61.0221 18.5666 70.5985 17.7842C80.1866 17.0008 92.278 17 108.48 17V15ZM17 108.48C17 92.278 17.0008 80.1866 17.7842 70.5985C18.5666 61.0221 20.1247 54.0309 23.1908 48.0133L21.4088 47.1054C18.1751 53.4519 16.5833 60.7355 15.7908 70.4356C14.9992 80.1241 15 92.311 15 108.48H17ZM47.1054 21.4088C36.0414 27.0462 27.0462 36.0414 21.4088 47.1054L23.1908 48.0133C28.6364 37.3257 37.3257 28.6364 48.0133 23.1908L47.1054 21.4088Z" fill="url(#paint2_linear)"/>
</g>
<path d="M453.067 213.875V188.306H387.2L451.635 100.756V77.4369H349.153V103.006H413.588L349.153 190.351V213.875H453.067ZM507.962 216.33C523.303 216.33 538.85 211.625 548.668 202.624L537.009 185.442C530.668 191.579 519.212 195.056 510.826 195.056C494.052 195.056 484.234 185.033 482.393 172.964H555.828V166.827C555.828 134.712 535.986 112.62 506.326 112.62C476.46 112.62 455.187 135.735 455.187 164.373C455.187 196.079 477.892 216.33 507.962 216.33ZM530.872 154.963H482.188C483.211 145.145 490.166 133.894 506.326 133.894C523.508 133.894 530.054 145.554 530.872 154.963ZM589.468 213.875V147.19C593.968 141.463 601.741 135.735 611.969 135.735C623.015 135.735 630.174 140.44 630.174 154.145V213.875H656.357V144.122C656.357 124.894 645.925 112.62 624.037 112.62C608.082 112.62 595.809 120.393 589.468 127.757V115.075H563.489V213.875H589.468ZM731.28 216.33C774.85 216.33 801.238 186.874 801.238 138.19H726.78V163.759H769.327C765.032 178.078 753.372 190.556 733.939 190.556C708.984 190.556 690.983 171.532 690.983 145.758C690.983 119.984 708.984 100.961 733.939 100.961C748.258 100.961 759.918 109.143 766.259 118.757L790.192 105.665C779.964 89.5057 762.168 75.1868 733.939 75.1868C693.847 75.1868 661.118 102.597 661.118 145.758C661.118 188.715 693.846 216.33 731.28 216.33ZM856.43 216.33C889.159 216.33 908.796 192.397 908.796 164.373C908.796 136.349 889.159 112.62 856.43 112.62C823.906 112.62 804.269 136.349 804.269 164.373C804.269 192.397 823.906 216.33 856.43 216.33ZM856.43 193.215C840.271 193.215 831.27 179.919 831.27 164.373C831.27 149.031 840.271 135.735 856.43 135.735C872.795 135.735 881.795 149.031 881.795 164.373C881.795 179.919 872.795 193.215 856.43 193.215Z" fill="#616670"/>
<defs>
<filter id="filter0_d" x="6" y="16" width="280" height="291" filterUnits="userSpaceOnUse" color-interpolation-filters="sRGB">
<feFlood flood-opacity="0" result="BackgroundImageFix"/>
<feColorMatrix in="SourceAlpha" type="matrix" values="0 0 0 0 0 0 0 0 0 0 0 0 0 0 0 0 0 0 127 0" result="hardAlpha"/>
<feMorphology radius="13" operator="erode" in="SourceAlpha" result="effect1_dropShadow"/>
<feOffset dy="21"/>
<feGaussianBlur stdDeviation="11.5"/>
<feColorMatrix type="matrix" values="0 0 0 0 0.148385 0 0 0 0 0.4625 0 0 0 0 0.440534 0 0 0 0.32 0"/>
<feBlend mode="normal" in2="BackgroundImageFix" result="effect1_dropShadow"/>
<feBlend mode="normal" in="SourceGraphic" in2="effect1_dropShadow" result="shape"/>
</filter>
<filter id="filter1_i" x="69.8281" y="58.1484" width="152.344" height="176.195" filterUnits="userSpaceOnUse" color-interpolation-filters="sRGB">
<feFlood flood-opacity="0" result="BackgroundImageFix"/>
<feBlend mode="normal" in="SourceGraphic" in2="BackgroundImageFix" result="shape"/>
<feColorMatrix in="SourceAlpha" type="matrix" values="0 0 0 0 0 0 0 0 0 0 0 0 0 0 0 0 0 0 127 0" result="hardAlpha"/>
<feOffset dy="1"/>
<feGaussianBlur stdDeviation="1"/>
<feComposite in2="hardAlpha" operator="arithmetic" k2="-1" k3="1"/>
<feColorMatrix type="matrix" values="0 0 0 0 0.262745 0 0 0 0 0.811765 0 0 0 0 0.780392 0 0 0 0.677133 0"/>
<feBlend mode="normal" in2="shape" result="effect1_innerShadow"/>
</filter>
<linearGradient id="paint0_linear" x1="146" y1="16" x2="146" y2="270.875" gradientUnits="userSpaceOnUse">
<stop stop-color="white"/>
<stop offset="0.999087" stop-color="#E6F7F7"/>
</linearGradient>
<linearGradient id="paint1_linear" x1="79.8983" y1="64.4746" x2="219.814" y2="229.729" gradientUnits="userSpaceOnUse">
<stop stop-color="#4FF4BA"/>
<stop offset="1" stop-color="#43CFC7" stop-opacity="0.677133"/>
</linearGradient>
<linearGradient id="paint2_linear" x1="146" y1="16" x2="146" y2="276" gradientUnits="userSpaceOnUse">
<stop stop-color="#E7F8F8"/>
<stop offset="1" stop-color="#E6F8F8"/>
</linearGradient>
</defs>
</svg>
