<svg xmlns="http://www.w3.org/2000/svg" xmlns:xlink="http://www.w3.org/1999/xlink" width="599px" height="103px" viewBox="0 0 599 103"><title>Zengo-filledstars</title><g id="Page-1" stroke="none" stroke-width="1" fill="none" fill-rule="evenodd" stroke-linecap="round" stroke-linejoin="round"><g id="Zengo-filledstars" transform="translate(1.000000, 1.000000)" stroke="#35C4BA" stroke-width="2"><line x1="566.24" y1="29.72" x2="569.04" y2="30.14" id="Path"></line><path d="M574.33,30.94 L590.87,33.44 C593.344529,33.8120005 595.392887,35.5573763 596.152918,37.9414964 C596.912949,40.3256164 596.252673,42.934475 594.45,44.67 L580.45,58.13" id="Path" stroke-dasharray="5.34"></path><line x1="578.56" y1="59.99" x2="576.52" y2="61.96" id="Path"></line><path d="M574.59,67.76 L578.67,92.34 C579.080216,94.8092529 578.051696,97.2970704 576.017573,98.7557788 C573.98345,100.214487 571.297176,100.390618 569.09,99.21 L547.09,87.5 C545.174984,86.4901142 542.885016,86.4901142 540.97,87.5 L518.88,98.93 C516.655856,100.088755 513.966053,99.8802437 511.947058,98.3925637 C509.928064,96.9048837 508.932111,94.3975748 509.38,91.93 L513.73,67.41 C514.106361,65.279046 513.410925,63.0992643 511.87,61.58 L494.13,44.11 C492.346189,42.3538383 491.715317,39.7366126 492.50308,37.3605834 C493.290843,34.9845543 495.360344,33.2626263 497.84,32.92 L522.5,29.47 C524.655339,29.1822306 526.528021,27.845136 527.5,25.9 L538.62,3.63 C539.738632,1.39007962 542.033117,-0.0193433381 544.536787,-0.00459490382 C547.040456,0.01038641 549.318043,1.44695484 550.41,3.7 L561.31,26.09 L574.59,67.76 Z" id="Path" fill="#35C4BA" fill-rule="nonzero"></path><path d="M443.2,29.72 L467.83,33.44 C470.304529,33.8120005 472.352887,35.5573763 473.112918,37.9414964 C473.872949,40.3256164 473.212673,42.934475 471.41,44.67 L453.48,62 C451.921696,63.4981105 451.200015,65.6668899 451.55,67.8 L455.63,92.38 C456.040216,94.8492529 455.011696,97.3370704 452.977573,98.7957788 C450.94345,100.254487 448.257176,100.430618 446.05,99.25 L424.05,87.54 C422.134984,86.5301142 419.845016,86.5301142 417.93,87.54 L395.84,98.93 C393.615856,100.088755 390.926053,99.8802437 388.907058,98.3925637 C386.888064,96.9048837 385.892111,94.3975748 386.34,91.93 L390.69,67.41 C391.066361,65.279046 390.370925,63.0992643 388.83,61.58 L371.09,44.11 C369.306189,42.3538383 368.675317,39.7366126 369.46308,37.3605834 C370.250843,34.9845543 372.320344,33.2626263 374.8,32.92 L399.46,29.47 C401.615339,29.1822306 403.488021,27.845136 404.46,25.9 L415.58,3.63 C416.698632,1.39007962 418.993117,-0.0193433381 421.496787,-0.00459490382 C424.000456,0.01038641 426.278043,1.44695484 427.37,3.7 L438.27,26.09 C439.217435,28.0362375 441.060231,29.3931033 443.2,29.72 Z" id="Path" fill="#35C4BA" fill-rule="nonzero"></path><path d="M320.16,29.72 L344.78,33.44 C347.256249,33.8088869 349.307623,35.5530466 350.069958,37.9377337 C350.832294,40.3224209 350.173073,42.9331017 348.37,44.67 L330.44,62 C328.881696,63.4981105 328.160015,65.6668899 328.51,67.8 L332.58,92.38 C332.995661,94.8485497 331.970186,97.3384693 329.936619,98.7983031 C327.903051,100.258137 325.215935,100.433368 323.01,99.25 L301,87.5 C299.084984,86.4901142 296.795016,86.4901142 294.88,87.5 L272.8,98.93 C270.575856,100.088755 267.886053,99.8802437 265.867058,98.3925637 C263.848064,96.9048837 262.852111,94.3975748 263.3,91.93 L267.64,67.41 C268.024263,65.2803801 267.331871,63.098411 265.79,61.58 L248.05,44.11 C246.266639,42.3552087 245.634734,39.739835 246.420181,37.3643896 C247.205628,34.9889442 249.272078,33.2657881 251.75,32.92 L276.42,29.47 C278.574675,29.1805505 280.446647,27.8439621 281.42,25.9 L292.54,3.63 C293.658632,1.39007962 295.953117,-0.0193433381 298.456787,-0.00459490382 C300.960456,0.01038641 303.238043,1.44695484 304.33,3.7 L315.23,26.09 C316.176069,28.0373751 318.01955,29.3947456 320.16,29.72 Z" id="Path" fill="#35C4BA" fill-rule="nonzero"></path><path d="M197.12,29.72 L221.74,33.44 C224.216249,33.8088869 226.267623,35.5530466 227.029958,37.9377337 C227.792294,40.3224209 227.133073,42.9331017 225.33,44.67 L207.39,62 C205.838337,63.5019621 205.121019,65.668859 205.47,67.8 L209.54,92.38 C209.947446,94.8463557 208.919955,97.3302461 206.889244,98.7880297 C204.858532,100.245813 202.176484,100.424883 199.97,99.25 L178,87.5 C176.084984,86.4901142 173.795016,86.4901142 171.88,87.5 L149.76,98.93 C147.535856,100.088755 144.846053,99.8802437 142.827058,98.3925637 C140.808064,96.9048837 139.812111,94.3975748 140.26,91.93 L144.6,67.41 C144.985321,65.2784537 144.288572,63.0945579 142.74,61.58 L125,44.11 C123.216639,42.3552087 122.584734,39.739835 123.370181,37.3643896 C124.155628,34.9889442 126.222078,33.2657881 128.7,32.92 L153.37,29.47 C155.524675,29.1805505 157.396647,27.8439621 158.37,25.9 L169.5,3.63 C170.618632,1.39007962 172.913117,-0.0193433381 175.416787,-0.00459490382 C177.920456,0.01038641 180.198043,1.44695484 181.29,3.7 L192.19,26.09 C193.136069,28.0373751 194.97955,29.3947456 197.12,29.72 Z" id="Path" fill="#35C4BA" fill-rule="nonzero"></path><path d="M74.08,29.72 L98.7,33.44 C101.174529,33.8120005 103.222887,35.5573763 103.982918,37.9414964 C104.742949,40.3256164 104.082673,42.934475 102.28,44.67 L84.35,62 C82.7983366,63.5019621 82.081019,65.668859 82.43,67.8 L86.5,92.34 C86.9102158,94.8092529 85.8816962,97.2970704 83.8475731,98.7557788 C81.8134499,100.214487 79.1271763,100.390618 76.92,99.21 L55,87.5 C53.084984,86.4901142 50.795016,86.4901142 48.88,87.5 L26.72,98.93 C24.4958561,100.088755 21.8060526,99.8802437 19.7870583,98.3925637 C17.768064,96.9048837 16.7721113,94.3975748 17.22,91.93 L21.56,67.41 C21.9383409,65.2849514 21.2421315,63.110233 19.7,61.6 L2,44.11 C0.216639431,42.3552087 -0.41526572,39.739835 0.370180931,37.3643896 C1.15562758,34.9889442 3.2220779,33.2657881 5.7,32.92 L30.37,29.47 C32.5246747,29.1805505 34.3966472,27.8439621 35.37,25.9 L46.46,3.63 C47.5786325,1.39007962 49.8731171,-0.0193433381 52.3767866,-0.00459490382 C54.880456,0.01038641 57.1580433,1.44695484 58.25,3.7 L69.15,26.09 C70.096069,28.0373751 71.9395501,29.3947456 74.08,29.72 Z" id="Path" fill="#35C4BA" fill-rule="nonzero"></path></g></g></svg>